<svg width="1920" height="1080" viewBox="0 0 1920 1080" fill="none" xmlns="http://www.w3.org/2000/svg">
<g clip-path="url(#clip0_1_49)">
<rect width="1920" height="1080" fill="url(#paint0_linear_1_49)"/>
<path d="M600 100H800L1000 300M600 100V300M600 100L800 300M1100 700L1200 500L1000 300M1100 700V900M1100 700L950 500M1100 900H900L700 700M1100 900L900 700M600 300L500 500L700 700M600 300L750 500M700 700H900M700 700L750 500M800 300H1000M800 300L750 500M1000 300L950 500M900 700L950 500M750 500H950" stroke="white"/>
<path d="M1300 800H1500L1700 1000M1300 800V1000M1300 800L1500 1000M1800 1400L1900 1200L1700 1000M1800 1400V1600M1800 1400L1650 1200M1800 1600H1600L1400 1400M1800 1600L1600 1400M1300 1000L1200 1200L1400 1400M1300 1000L1450 1200M1400 1400H1600M1400 1400L1450 1200M1500 1000H1700M1500 1000L1450 1200M1700 1000L1650 1200M1600 1400L1650 1200M1450 1200H1650" stroke="white"/>
<path d="M1320 -400H1520L1720 -200M1320 -400V-200M1320 -400L1520 -200M1820 200L1920 0L1720 -200M1820 200V400M1820 200L1670 0M1820 400H1620L1420 200M1820 400L1620 200M1320 -200L1220 0L1420 200M1320 -200L1470 0M1420 200H1620M1420 200L1470 0M1520 -200H1720M1520 -200L1470 0M1720 -200L1670 0M1620 200L1670 0M1470 0H1670" stroke="white"/>
<path d="M-201 200H-1L199 400M-201 200V400M-201 200L-1 400M299 800L399 600L199 400M299 800V1000M299 800L149 600M299 1000H99L-101 800M299 1000L99 800M-201 400L-301 600L-101 800M-201 400L-51 600M-101 800H99M-101 800L-51 600M-1 400H199M-1 400L-51 600M199 400L149 600M99 800L149 600M-51 600H149" stroke="white"/>
<path d="M627.557 419.364C626.83 412.03 623.708 406.333 618.193 402.273C612.678 398.212 605.193 396.182 595.739 396.182C589.314 396.182 583.89 397.091 579.466 398.909C575.042 400.667 571.648 403.121 569.284 406.273C566.981 409.424 565.83 413 565.83 417C565.708 420.333 566.405 423.242 567.92 425.727C569.496 428.212 571.648 430.364 574.375 432.182C577.102 433.939 580.254 435.485 583.83 436.818C587.405 438.091 591.223 439.182 595.284 440.091L612.011 444.091C620.133 445.909 627.587 448.333 634.375 451.364C641.163 454.394 647.042 458.121 652.011 462.545C656.981 466.97 660.83 472.182 663.557 478.182C666.345 484.182 667.769 491.061 667.83 498.818C667.769 510.212 664.86 520.091 659.102 528.455C653.405 536.758 645.163 543.212 634.375 547.818C623.648 552.364 610.708 554.636 595.557 554.636C580.527 554.636 567.436 552.333 556.284 547.727C545.193 543.121 536.527 536.303 530.284 527.273C524.102 518.182 520.86 506.939 520.557 493.545H558.648C559.072 499.788 560.86 505 564.011 509.182C567.223 513.303 571.496 516.424 576.83 518.545C582.223 520.606 588.314 521.636 595.102 521.636C601.769 521.636 607.557 520.667 612.466 518.727C617.436 516.788 621.284 514.091 624.011 510.636C626.739 507.182 628.102 503.212 628.102 498.727C628.102 494.545 626.86 491.03 624.375 488.182C621.951 485.333 618.375 482.909 613.648 480.909C608.981 478.909 603.254 477.091 596.466 475.455L576.193 470.364C560.496 466.545 548.102 460.576 539.011 452.455C529.92 444.333 525.405 433.394 525.466 419.636C525.405 408.364 528.405 398.515 534.466 390.091C540.587 381.667 548.981 375.091 559.648 370.364C570.314 365.636 582.436 363.273 596.011 363.273C609.83 363.273 621.89 365.636 632.193 370.364C642.557 375.091 650.617 381.667 656.375 390.091C662.133 398.515 665.102 408.273 665.284 419.364H627.557ZM717.489 604.364C712.58 604.364 707.973 603.97 703.67 603.182C699.428 602.455 695.913 601.515 693.125 600.364L701.852 571.455C706.398 572.848 710.489 573.606 714.125 573.727C717.822 573.848 721.004 573 723.67 571.182C726.398 569.364 728.61 566.273 730.307 561.909L732.58 556L682.489 412.364H723.216L752.125 514.909H753.58L782.761 412.364H823.761L769.489 567.091C766.883 574.606 763.337 581.152 758.852 586.727C754.428 592.364 748.822 596.697 742.034 599.727C735.246 602.818 727.064 604.364 717.489 604.364ZM945.307 419.364C944.58 412.03 941.458 406.333 935.943 402.273C930.428 398.212 922.943 396.182 913.489 396.182C907.064 396.182 901.64 397.091 897.216 398.909C892.792 400.667 889.398 403.121 887.034 406.273C884.731 409.424 883.58 413 883.58 417C883.458 420.333 884.155 423.242 885.67 425.727C887.246 428.212 889.398 430.364 892.125 432.182C894.852 433.939 898.004 435.485 901.58 436.818C905.155 438.091 908.973 439.182 913.034 440.091L929.761 444.091C937.883 445.909 945.337 448.333 952.125 451.364C958.913 454.394 964.792 458.121 969.761 462.545C974.731 466.97 978.58 472.182 981.307 478.182C984.095 484.182 985.519 491.061 985.58 498.818C985.519 510.212 982.61 520.091 976.852 528.455C971.155 536.758 962.913 543.212 952.125 547.818C941.398 552.364 928.458 554.636 913.307 554.636C898.277 554.636 885.186 552.333 874.034 547.727C862.943 543.121 854.277 536.303 848.034 527.273C841.852 518.182 838.61 506.939 838.307 493.545H876.398C876.822 499.788 878.61 505 881.761 509.182C884.973 513.303 889.246 516.424 894.58 518.545C899.973 520.606 906.064 521.636 912.852 521.636C919.519 521.636 925.307 520.667 930.216 518.727C935.186 516.788 939.034 514.091 941.761 510.636C944.489 507.182 945.852 503.212 945.852 498.727C945.852 494.545 944.61 491.03 942.125 488.182C939.701 485.333 936.125 482.909 931.398 480.909C926.731 478.909 921.004 477.091 914.216 475.455L893.943 470.364C878.246 466.545 865.852 460.576 856.761 452.455C847.67 444.333 843.155 433.394 843.216 419.636C843.155 408.364 846.155 398.515 852.216 390.091C858.337 381.667 866.731 375.091 877.398 370.364C888.064 365.636 900.186 363.273 913.761 363.273C927.58 363.273 939.64 365.636 949.943 370.364C960.307 375.091 968.367 381.667 974.125 390.091C979.883 398.515 982.852 408.273 983.034 419.364H945.307ZM1103.4 552H1061.22L1125.49 365.818H1176.22L1240.4 552H1198.22L1151.58 408.364H1150.12L1103.4 552ZM1100.76 478.818H1200.4V509.545H1100.76V478.818ZM1262.08 604.364V412.364H1300.26V435.818H1301.99C1303.69 432.061 1306.14 428.242 1309.35 424.364C1312.63 420.424 1316.87 417.152 1322.08 414.545C1327.35 411.879 1333.9 410.545 1341.72 410.545C1351.9 410.545 1361.29 413.212 1369.9 418.545C1378.5 423.818 1385.38 431.788 1390.53 442.455C1395.69 453.061 1398.26 466.364 1398.26 482.364C1398.26 497.939 1395.75 511.091 1390.72 521.818C1385.75 532.485 1378.96 540.576 1370.35 546.091C1361.81 551.545 1352.23 554.273 1341.62 554.273C1334.11 554.273 1327.72 553.03 1322.44 550.545C1317.23 548.061 1312.96 544.939 1309.62 541.182C1306.29 537.364 1303.75 533.515 1301.99 529.636H1300.81V604.364H1262.08ZM1299.99 482.182C1299.99 490.485 1301.14 497.727 1303.44 503.909C1305.75 510.091 1309.08 514.909 1313.44 518.364C1317.81 521.758 1323.11 523.455 1329.35 523.455C1335.66 523.455 1340.99 521.727 1345.35 518.273C1349.72 514.758 1353.02 509.909 1355.26 503.727C1357.56 497.485 1358.72 490.303 1358.72 482.182C1358.72 474.121 1357.59 467.03 1355.35 460.909C1353.11 454.788 1349.81 450 1345.44 446.545C1341.08 443.091 1335.72 441.364 1329.35 441.364C1323.05 441.364 1317.72 443.03 1313.35 446.364C1309.05 449.697 1305.75 454.424 1303.44 460.545C1301.14 466.667 1299.99 473.879 1299.99 482.182ZM1424.08 604.364V412.364H1462.26V435.818H1463.99C1465.69 432.061 1468.14 428.242 1471.35 424.364C1474.63 420.424 1478.87 417.152 1484.08 414.545C1489.35 411.879 1495.9 410.545 1503.72 410.545C1513.9 410.545 1523.29 413.212 1531.9 418.545C1540.5 423.818 1547.38 431.788 1552.53 442.455C1557.69 453.061 1560.26 466.364 1560.26 482.364C1560.26 497.939 1557.75 511.091 1552.72 521.818C1547.75 532.485 1540.96 540.576 1532.35 546.091C1523.81 551.545 1514.23 554.273 1503.62 554.273C1496.11 554.273 1489.72 553.03 1484.44 550.545C1479.23 548.061 1474.96 544.939 1471.62 541.182C1468.29 537.364 1465.75 533.515 1463.99 529.636H1462.81V604.364H1424.08ZM1461.99 482.182C1461.99 490.485 1463.14 497.727 1465.44 503.909C1467.75 510.091 1471.08 514.909 1475.44 518.364C1479.81 521.758 1485.11 523.455 1491.35 523.455C1497.66 523.455 1502.99 521.727 1507.35 518.273C1511.72 514.758 1515.02 509.909 1517.26 503.727C1519.56 497.485 1520.72 490.303 1520.72 482.182C1520.72 474.121 1519.59 467.03 1517.35 460.909C1515.11 454.788 1511.81 450 1507.44 446.545C1503.08 443.091 1497.72 441.364 1491.35 441.364C1485.05 441.364 1479.72 443.03 1475.35 446.364C1471.05 449.697 1467.75 454.424 1465.44 460.545C1463.14 466.667 1461.99 473.879 1461.99 482.182ZM450.219 719H435.855V672.455H450.855C455.37 672.455 459.234 673.386 462.446 675.25C465.658 677.098 468.12 679.758 469.832 683.227C471.545 686.682 472.401 690.818 472.401 695.636C472.401 700.485 471.537 704.659 469.81 708.159C468.082 711.644 465.567 714.326 462.264 716.205C458.961 718.068 454.946 719 450.219 719ZM441.491 714H449.855C453.704 714 456.893 713.258 459.423 711.773C461.954 710.288 463.84 708.174 465.082 705.432C466.325 702.689 466.946 699.424 466.946 695.636C466.946 691.879 466.332 688.644 465.105 685.932C463.878 683.205 462.045 681.114 459.605 679.659C457.166 678.189 454.128 677.455 450.491 677.455H441.491V714ZM495.764 719.727C492.401 719.727 489.499 718.985 487.06 717.5C484.635 716 482.764 713.909 481.446 711.227C480.143 708.53 479.491 705.394 479.491 701.818C479.491 698.242 480.143 695.091 481.446 692.364C482.764 689.621 484.598 687.485 486.946 685.955C489.31 684.409 492.067 683.636 495.219 683.636C497.037 683.636 498.832 683.939 500.605 684.545C502.378 685.152 503.991 686.136 505.446 687.5C506.901 688.848 508.06 690.636 508.923 692.864C509.787 695.091 510.219 697.833 510.219 701.091V703.364H483.31V698.727H504.764C504.764 696.758 504.37 695 503.582 693.455C502.81 691.909 501.704 690.689 500.264 689.795C498.84 688.902 497.158 688.455 495.219 688.455C493.082 688.455 491.234 688.985 489.673 690.045C488.128 691.091 486.938 692.455 486.105 694.136C485.272 695.818 484.855 697.621 484.855 699.545V702.636C484.855 705.273 485.31 707.508 486.219 709.341C487.143 711.159 488.423 712.545 490.06 713.5C491.696 714.439 493.598 714.909 495.764 714.909C497.173 714.909 498.446 714.712 499.582 714.318C500.734 713.909 501.726 713.303 502.56 712.5C503.393 711.682 504.037 710.667 504.491 709.455L509.673 710.909C509.128 712.667 508.211 714.212 506.923 715.545C505.635 716.864 504.045 717.894 502.151 718.636C500.257 719.364 498.128 719.727 495.764 719.727ZM545.861 684.091L532.952 719H527.497L514.588 684.091H520.406L530.043 711.909H530.406L540.043 684.091H545.861ZM566.327 719.727C562.963 719.727 560.062 718.985 557.622 717.5C555.198 716 553.327 713.909 552.009 711.227C550.705 708.53 550.054 705.394 550.054 701.818C550.054 698.242 550.705 695.091 552.009 692.364C553.327 689.621 555.16 687.485 557.509 685.955C559.872 684.409 562.63 683.636 565.781 683.636C567.599 683.636 569.395 683.939 571.168 684.545C572.94 685.152 574.554 686.136 576.009 687.5C577.463 688.848 578.622 690.636 579.486 692.864C580.349 695.091 580.781 697.833 580.781 701.091V703.364H553.872V698.727H575.327C575.327 696.758 574.933 695 574.145 693.455C573.372 691.909 572.266 690.689 570.827 689.795C569.402 688.902 567.721 688.455 565.781 688.455C563.645 688.455 561.796 688.985 560.236 690.045C558.69 691.091 557.501 692.455 556.668 694.136C555.834 695.818 555.418 697.621 555.418 699.545V702.636C555.418 705.273 555.872 707.508 556.781 709.341C557.705 711.159 558.986 712.545 560.622 713.5C562.259 714.439 564.16 714.909 566.327 714.909C567.736 714.909 569.009 714.712 570.145 714.318C571.296 713.909 572.289 713.303 573.122 712.5C573.955 711.682 574.599 710.667 575.054 709.455L580.236 710.909C579.69 712.667 578.774 714.212 577.486 715.545C576.198 716.864 574.607 717.894 572.713 718.636C570.819 719.364 568.69 719.727 566.327 719.727ZM594.304 672.455V719H588.94V672.455H594.304ZM618.31 719.727C615.158 719.727 612.393 718.977 610.014 717.477C607.651 715.977 605.802 713.879 604.469 711.182C603.151 708.485 602.491 705.333 602.491 701.727C602.491 698.091 603.151 694.917 604.469 692.205C605.802 689.492 607.651 687.386 610.014 685.886C612.393 684.386 615.158 683.636 618.31 683.636C621.461 683.636 624.219 684.386 626.582 685.886C628.961 687.386 630.81 689.492 632.128 692.205C633.461 694.917 634.128 698.091 634.128 701.727C634.128 705.333 633.461 708.485 632.128 711.182C630.81 713.879 628.961 715.977 626.582 717.477C624.219 718.977 621.461 719.727 618.31 719.727ZM618.31 714.909C620.704 714.909 622.673 714.295 624.219 713.068C625.764 711.841 626.908 710.227 627.651 708.227C628.393 706.227 628.764 704.061 628.764 701.727C628.764 699.394 628.393 697.22 627.651 695.205C626.908 693.189 625.764 691.561 624.219 690.318C622.673 689.076 620.704 688.455 618.31 688.455C615.916 688.455 613.946 689.076 612.401 690.318C610.855 691.561 609.711 693.189 608.969 695.205C608.226 697.22 607.855 699.394 607.855 701.727C607.855 704.061 608.226 706.227 608.969 708.227C609.711 710.227 610.855 711.841 612.401 713.068C613.946 714.295 615.916 714.909 618.31 714.909ZM642.315 732.091V684.091H647.497V689.636H648.134C648.527 689.03 649.073 688.258 649.77 687.318C650.482 686.364 651.497 685.515 652.815 684.773C654.149 684.015 655.952 683.636 658.224 683.636C661.164 683.636 663.755 684.371 665.997 685.841C668.24 687.311 669.99 689.394 671.247 692.091C672.505 694.788 673.134 697.97 673.134 701.636C673.134 705.333 672.505 708.538 671.247 711.25C669.99 713.947 668.247 716.038 666.02 717.523C663.793 718.992 661.224 719.727 658.315 719.727C656.073 719.727 654.277 719.356 652.929 718.614C651.58 717.856 650.543 717 649.815 716.045C649.088 715.076 648.527 714.273 648.134 713.636H647.679V732.091H642.315ZM647.588 701.545C647.588 704.182 647.974 706.508 648.747 708.523C649.52 710.523 650.649 712.091 652.134 713.227C653.618 714.348 655.437 714.909 657.588 714.909C659.83 714.909 661.702 714.318 663.202 713.136C664.717 711.939 665.853 710.333 666.611 708.318C667.384 706.288 667.77 704.03 667.77 701.545C667.77 699.091 667.391 696.879 666.634 694.909C665.891 692.924 664.762 691.356 663.247 690.205C661.747 689.038 659.861 688.455 657.588 688.455C655.406 688.455 653.573 689.008 652.088 690.114C650.603 691.205 649.482 692.735 648.724 694.705C647.967 696.659 647.588 698.939 647.588 701.545ZM695.952 719.727C692.588 719.727 689.687 718.985 687.247 717.5C684.823 716 682.952 713.909 681.634 711.227C680.33 708.53 679.679 705.394 679.679 701.818C679.679 698.242 680.33 695.091 681.634 692.364C682.952 689.621 684.785 687.485 687.134 685.955C689.497 684.409 692.255 683.636 695.406 683.636C697.224 683.636 699.02 683.939 700.793 684.545C702.565 685.152 704.179 686.136 705.634 687.5C707.088 688.848 708.247 690.636 709.111 692.864C709.974 695.091 710.406 697.833 710.406 701.091V703.364H683.497V698.727H704.952C704.952 696.758 704.558 695 703.77 693.455C702.997 691.909 701.891 690.689 700.452 689.795C699.027 688.902 697.346 688.455 695.406 688.455C693.27 688.455 691.421 688.985 689.861 690.045C688.315 691.091 687.126 692.455 686.293 694.136C685.459 695.818 685.043 697.621 685.043 699.545V702.636C685.043 705.273 685.497 707.508 686.406 709.341C687.33 711.159 688.611 712.545 690.247 713.5C691.884 714.439 693.785 714.909 695.952 714.909C697.361 714.909 698.634 714.712 699.77 714.318C700.921 713.909 701.914 713.303 702.747 712.5C703.58 711.682 704.224 710.667 704.679 709.455L709.861 710.909C709.315 712.667 708.399 714.212 707.111 715.545C705.823 716.864 704.232 717.894 702.338 718.636C700.444 719.364 698.315 719.727 695.952 719.727ZM731.747 719.727C728.838 719.727 726.27 718.992 724.043 717.523C721.815 716.038 720.073 713.947 718.815 711.25C717.558 708.538 716.929 705.333 716.929 701.636C716.929 697.97 717.558 694.788 718.815 692.091C720.073 689.394 721.823 687.311 724.065 685.841C726.308 684.371 728.899 683.636 731.838 683.636C734.111 683.636 735.906 684.015 737.224 684.773C738.558 685.515 739.573 686.364 740.27 687.318C740.982 688.258 741.535 689.03 741.929 689.636H742.384V672.455H747.747V719H742.565V713.636H741.929C741.535 714.273 740.974 715.076 740.247 716.045C739.52 717 738.482 717.856 737.134 718.614C735.785 719.356 733.99 719.727 731.747 719.727ZM732.474 714.909C734.626 714.909 736.444 714.348 737.929 713.227C739.414 712.091 740.543 710.523 741.315 708.523C742.088 706.508 742.474 704.182 742.474 701.545C742.474 698.939 742.096 696.659 741.338 694.705C740.58 692.735 739.459 691.205 737.974 690.114C736.49 689.008 734.656 688.455 732.474 688.455C730.202 688.455 728.308 689.038 726.793 690.205C725.293 691.356 724.164 692.924 723.406 694.909C722.664 696.879 722.293 699.091 722.293 701.545C722.293 704.03 722.671 706.288 723.429 708.318C724.202 710.333 725.338 711.939 726.838 713.136C728.353 714.318 730.232 714.909 732.474 714.909ZM786.588 719.818C784.376 719.818 782.368 719.402 780.565 718.568C778.762 717.72 777.33 716.5 776.27 714.909C775.209 713.303 774.679 711.364 774.679 709.091C774.679 707.091 775.073 705.47 775.861 704.227C776.649 702.97 777.702 701.985 779.02 701.273C780.338 700.561 781.793 700.03 783.384 699.682C784.99 699.318 786.603 699.03 788.224 698.818C790.346 698.545 792.065 698.341 793.384 698.205C794.717 698.053 795.687 697.803 796.293 697.455C796.914 697.106 797.224 696.5 797.224 695.636V695.455C797.224 693.212 796.611 691.47 795.384 690.227C794.171 688.985 792.33 688.364 789.861 688.364C787.3 688.364 785.293 688.924 783.838 690.045C782.384 691.167 781.361 692.364 780.77 693.636L775.679 691.818C776.588 689.697 777.8 688.045 779.315 686.864C780.846 685.667 782.512 684.833 784.315 684.364C786.134 683.879 787.921 683.636 789.679 683.636C790.8 683.636 792.088 683.773 793.543 684.045C795.012 684.303 796.429 684.841 797.793 685.659C799.171 686.477 800.315 687.712 801.224 689.364C802.134 691.015 802.588 693.227 802.588 696V719H797.224V714.273H796.952C796.588 715.03 795.982 715.841 795.134 716.705C794.285 717.568 793.156 718.303 791.747 718.909C790.338 719.515 788.618 719.818 786.588 719.818ZM787.406 715C789.527 715 791.315 714.583 792.77 713.75C794.24 712.917 795.346 711.841 796.088 710.523C796.846 709.205 797.224 707.818 797.224 706.364V701.455C796.997 701.727 796.497 701.977 795.724 702.205C794.967 702.417 794.088 702.606 793.088 702.773C792.103 702.924 791.141 703.061 790.202 703.182C789.277 703.288 788.527 703.379 787.952 703.455C786.558 703.636 785.255 703.932 784.043 704.341C782.846 704.735 781.876 705.333 781.134 706.136C780.406 706.924 780.043 708 780.043 709.364C780.043 711.227 780.732 712.636 782.111 713.591C783.505 714.53 785.27 715 787.406 715ZM817.741 698V719H812.378V684.091H817.56V689.545H818.014C818.832 687.773 820.075 686.348 821.741 685.273C823.408 684.182 825.56 683.636 828.196 683.636C830.56 683.636 832.628 684.121 834.401 685.091C836.173 686.045 837.552 687.5 838.537 689.455C839.522 691.394 840.014 693.848 840.014 696.818V719H834.651V697.182C834.651 694.439 833.938 692.303 832.514 690.773C831.09 689.227 829.135 688.455 826.651 688.455C824.938 688.455 823.408 688.826 822.06 689.568C820.726 690.311 819.673 691.394 818.901 692.818C818.128 694.242 817.741 695.97 817.741 698ZM862.997 719.727C860.088 719.727 857.52 718.992 855.293 717.523C853.065 716.038 851.323 713.947 850.065 711.25C848.808 708.538 848.179 705.333 848.179 701.636C848.179 697.97 848.808 694.788 850.065 692.091C851.323 689.394 853.073 687.311 855.315 685.841C857.558 684.371 860.149 683.636 863.088 683.636C865.361 683.636 867.156 684.015 868.474 684.773C869.808 685.515 870.823 686.364 871.52 687.318C872.232 688.258 872.785 689.03 873.179 689.636H873.634V672.455H878.997V719H873.815V713.636H873.179C872.785 714.273 872.224 715.076 871.497 716.045C870.77 717 869.732 717.856 868.384 718.614C867.035 719.356 865.24 719.727 862.997 719.727ZM863.724 714.909C865.876 714.909 867.694 714.348 869.179 713.227C870.664 712.091 871.793 710.523 872.565 708.523C873.338 706.508 873.724 704.182 873.724 701.545C873.724 698.939 873.346 696.659 872.588 694.705C871.83 692.735 870.709 691.205 869.224 690.114C867.74 689.008 865.906 688.455 863.724 688.455C861.452 688.455 859.558 689.038 858.043 690.205C856.543 691.356 855.414 692.924 854.656 694.909C853.914 696.879 853.543 699.091 853.543 701.545C853.543 704.03 853.921 706.288 854.679 708.318C855.452 710.333 856.588 711.939 858.088 713.136C859.603 714.318 861.482 714.909 863.724 714.909ZM907.565 719V684.091H912.747V689.545H913.202C913.929 687.682 915.103 686.235 916.724 685.205C918.346 684.159 920.293 683.636 922.565 683.636C924.868 683.636 926.785 684.159 928.315 685.205C929.861 686.235 931.065 687.682 931.929 689.545H932.293C933.187 687.742 934.527 686.311 936.315 685.25C938.103 684.174 940.247 683.636 942.747 683.636C945.868 683.636 948.421 684.614 950.406 686.568C952.391 688.508 953.384 691.53 953.384 695.636V719H948.02V695.636C948.02 693.061 947.315 691.22 945.906 690.114C944.497 689.008 942.838 688.455 940.929 688.455C938.474 688.455 936.573 689.197 935.224 690.682C933.876 692.152 933.202 694.015 933.202 696.273V719H927.747V695.091C927.747 693.106 927.103 691.508 925.815 690.295C924.527 689.068 922.868 688.455 920.838 688.455C919.444 688.455 918.141 688.826 916.929 689.568C915.732 690.311 914.762 691.341 914.02 692.659C913.293 693.962 912.929 695.47 912.929 697.182V719H907.565ZM973.463 719.818C971.251 719.818 969.243 719.402 967.44 718.568C965.637 717.72 964.205 716.5 963.145 714.909C962.084 713.303 961.554 711.364 961.554 709.091C961.554 707.091 961.948 705.47 962.736 704.227C963.524 702.97 964.577 701.985 965.895 701.273C967.213 700.561 968.668 700.03 970.259 699.682C971.865 699.318 973.478 699.03 975.099 698.818C977.221 698.545 978.94 698.341 980.259 698.205C981.592 698.053 982.562 697.803 983.168 697.455C983.789 697.106 984.099 696.5 984.099 695.636V695.455C984.099 693.212 983.486 691.47 982.259 690.227C981.046 688.985 979.205 688.364 976.736 688.364C974.175 688.364 972.168 688.924 970.713 690.045C969.259 691.167 968.236 692.364 967.645 693.636L962.554 691.818C963.463 689.697 964.675 688.045 966.19 686.864C967.721 685.667 969.387 684.833 971.19 684.364C973.009 683.879 974.796 683.636 976.554 683.636C977.675 683.636 978.963 683.773 980.418 684.045C981.887 684.303 983.304 684.841 984.668 685.659C986.046 686.477 987.19 687.712 988.099 689.364C989.009 691.015 989.463 693.227 989.463 696V719H984.099V714.273H983.827C983.463 715.03 982.857 715.841 982.009 716.705C981.16 717.568 980.031 718.303 978.622 718.909C977.213 719.515 975.493 719.818 973.463 719.818ZM974.281 715C976.402 715 978.19 714.583 979.645 713.75C981.115 712.917 982.221 711.841 982.963 710.523C983.721 709.205 984.099 707.818 984.099 706.364V701.455C983.872 701.727 983.372 701.977 982.599 702.205C981.842 702.417 980.963 702.606 979.963 702.773C978.978 702.924 978.016 703.061 977.077 703.182C976.152 703.288 975.402 703.379 974.827 703.455C973.433 703.636 972.13 703.932 970.918 704.341C969.721 704.735 968.751 705.333 968.009 706.136C967.281 706.924 966.918 708 966.918 709.364C966.918 711.227 967.607 712.636 968.986 713.591C970.38 714.53 972.145 715 974.281 715ZM999.253 719V684.091H1004.62V719H999.253ZM1001.98 678.273C1000.93 678.273 1000.03 677.917 999.276 677.205C998.533 676.492 998.162 675.636 998.162 674.636C998.162 673.636 998.533 672.78 999.276 672.068C1000.03 671.356 1000.93 671 1001.98 671C1003.03 671 1003.92 671.356 1004.66 672.068C1005.42 672.78 1005.8 673.636 1005.8 674.636C1005.8 675.636 1005.42 676.492 1004.66 677.205C1003.92 677.917 1003.03 678.273 1001.98 678.273ZM1019.8 698V719H1014.44V684.091H1019.62V689.545H1020.08C1020.89 687.773 1022.14 686.348 1023.8 685.273C1025.47 684.182 1027.62 683.636 1030.26 683.636C1032.62 683.636 1034.69 684.121 1036.46 685.091C1038.24 686.045 1039.61 687.5 1040.6 689.455C1041.58 691.394 1042.08 693.848 1042.08 696.818V719H1036.71V697.182C1036.71 694.439 1036 692.303 1034.58 690.773C1033.15 689.227 1031.2 688.455 1028.71 688.455C1027 688.455 1025.47 688.826 1024.12 689.568C1022.79 690.311 1021.74 691.394 1020.96 692.818C1020.19 694.242 1019.8 695.97 1019.8 698ZM1067.06 684.091V688.636H1048.97V684.091H1067.06ZM1054.24 675.727H1059.61V709C1059.61 710.515 1059.82 711.652 1060.26 712.409C1060.72 713.152 1061.29 713.652 1061.99 713.909C1062.7 714.152 1063.45 714.273 1064.24 714.273C1064.83 714.273 1065.32 714.242 1065.7 714.182C1066.07 714.106 1066.38 714.045 1066.61 714L1067.7 718.818C1067.33 718.955 1066.82 719.091 1066.17 719.227C1065.52 719.379 1064.7 719.455 1063.7 719.455C1062.18 719.455 1060.7 719.129 1059.24 718.477C1057.8 717.826 1056.61 716.833 1055.65 715.5C1054.71 714.167 1054.24 712.485 1054.24 710.455V675.727ZM1085.4 719.818C1083.19 719.818 1081.18 719.402 1079.38 718.568C1077.57 717.72 1076.14 716.5 1075.08 714.909C1074.02 713.303 1073.49 711.364 1073.49 709.091C1073.49 707.091 1073.89 705.47 1074.67 704.227C1075.46 702.97 1076.51 701.985 1077.83 701.273C1079.15 700.561 1080.61 700.03 1082.2 699.682C1083.8 699.318 1085.42 699.03 1087.04 698.818C1089.16 698.545 1090.88 698.341 1092.2 698.205C1093.53 698.053 1094.5 697.803 1095.11 697.455C1095.73 697.106 1096.04 696.5 1096.04 695.636V695.455C1096.04 693.212 1095.42 691.47 1094.2 690.227C1092.98 688.985 1091.14 688.364 1088.67 688.364C1086.11 688.364 1084.11 688.924 1082.65 690.045C1081.2 691.167 1080.17 692.364 1079.58 693.636L1074.49 691.818C1075.4 689.697 1076.61 688.045 1078.13 686.864C1079.66 685.667 1081.32 684.833 1083.13 684.364C1084.95 683.879 1086.73 683.636 1088.49 683.636C1089.61 683.636 1090.9 683.773 1092.36 684.045C1093.82 684.303 1095.24 684.841 1096.61 685.659C1097.98 686.477 1099.13 687.712 1100.04 689.364C1100.95 691.015 1101.4 693.227 1101.4 696V719H1096.04V714.273H1095.76C1095.4 715.03 1094.79 715.841 1093.95 716.705C1093.1 717.568 1091.97 718.303 1090.56 718.909C1089.15 719.515 1087.43 719.818 1085.4 719.818ZM1086.22 715C1088.34 715 1090.13 714.583 1091.58 713.75C1093.05 712.917 1094.16 711.841 1094.9 710.523C1095.66 709.205 1096.04 707.818 1096.04 706.364V701.455C1095.81 701.727 1095.31 701.977 1094.54 702.205C1093.78 702.417 1092.9 702.606 1091.9 702.773C1090.92 702.924 1089.95 703.061 1089.01 703.182C1088.09 703.288 1087.34 703.379 1086.76 703.455C1085.37 703.636 1084.07 703.932 1082.86 704.341C1081.66 704.735 1080.69 705.333 1079.95 706.136C1079.22 706.924 1078.86 708 1078.86 709.364C1078.86 711.227 1079.54 712.636 1080.92 713.591C1082.32 714.53 1084.08 715 1086.22 715ZM1111.19 719V684.091H1116.55V719H1111.19ZM1113.92 678.273C1112.87 678.273 1111.97 677.917 1111.21 677.205C1110.47 676.492 1110.1 675.636 1110.1 674.636C1110.1 673.636 1110.47 672.78 1111.21 672.068C1111.97 671.356 1112.87 671 1113.92 671C1114.96 671 1115.86 671.356 1116.6 672.068C1117.36 672.78 1117.74 673.636 1117.74 674.636C1117.74 675.636 1117.36 676.492 1116.6 677.205C1115.86 677.917 1114.96 678.273 1113.92 678.273ZM1131.74 698V719H1126.38V684.091H1131.56V689.545H1132.01C1132.83 687.773 1134.07 686.348 1135.74 685.273C1137.41 684.182 1139.56 683.636 1142.2 683.636C1144.56 683.636 1146.63 684.121 1148.4 685.091C1150.17 686.045 1151.55 687.5 1152.54 689.455C1153.52 691.394 1154.01 693.848 1154.01 696.818V719H1148.65V697.182C1148.65 694.439 1147.94 692.303 1146.51 690.773C1145.09 689.227 1143.14 688.455 1140.65 688.455C1138.94 688.455 1137.41 688.826 1136.06 689.568C1134.73 690.311 1133.67 691.394 1132.9 692.818C1132.13 694.242 1131.74 695.97 1131.74 698ZM1178.45 719.727C1175.09 719.727 1172.19 718.985 1169.75 717.5C1167.32 716 1165.45 713.909 1164.13 711.227C1162.83 708.53 1162.18 705.394 1162.18 701.818C1162.18 698.242 1162.83 695.091 1164.13 692.364C1165.45 689.621 1167.29 687.485 1169.63 685.955C1172 684.409 1174.75 683.636 1177.91 683.636C1179.72 683.636 1181.52 683.939 1183.29 684.545C1185.07 685.152 1186.68 686.136 1188.13 687.5C1189.59 688.848 1190.75 690.636 1191.61 692.864C1192.47 695.091 1192.91 697.833 1192.91 701.091V703.364H1166V698.727H1187.45C1187.45 696.758 1187.06 695 1186.27 693.455C1185.5 691.909 1184.39 690.689 1182.95 689.795C1181.53 688.902 1179.85 688.455 1177.91 688.455C1175.77 688.455 1173.92 688.985 1172.36 690.045C1170.82 691.091 1169.63 692.455 1168.79 694.136C1167.96 695.818 1167.54 697.621 1167.54 699.545V702.636C1167.54 705.273 1168 707.508 1168.91 709.341C1169.83 711.159 1171.11 712.545 1172.75 713.5C1174.38 714.439 1176.29 714.909 1178.45 714.909C1179.86 714.909 1181.13 714.712 1182.27 714.318C1183.42 713.909 1184.41 713.303 1185.25 712.5C1186.08 711.682 1186.72 710.667 1187.18 709.455L1192.36 710.909C1191.82 712.667 1190.9 714.212 1189.61 715.545C1188.32 716.864 1186.73 717.894 1184.84 718.636C1182.94 719.364 1180.82 719.727 1178.45 719.727ZM1214.25 719.727C1211.34 719.727 1208.77 718.992 1206.54 717.523C1204.32 716.038 1202.57 713.947 1201.32 711.25C1200.06 708.538 1199.43 705.333 1199.43 701.636C1199.43 697.97 1200.06 694.788 1201.32 692.091C1202.57 689.394 1204.32 687.311 1206.57 685.841C1208.81 684.371 1211.4 683.636 1214.34 683.636C1216.61 683.636 1218.41 684.015 1219.72 684.773C1221.06 685.515 1222.07 686.364 1222.77 687.318C1223.48 688.258 1224.04 689.03 1224.43 689.636H1224.88V672.455H1230.25V719H1225.07V713.636H1224.43C1224.04 714.273 1223.47 715.076 1222.75 716.045C1222.02 717 1220.98 717.856 1219.63 718.614C1218.29 719.356 1216.49 719.727 1214.25 719.727ZM1214.97 714.909C1217.13 714.909 1218.94 714.348 1220.43 713.227C1221.91 712.091 1223.04 710.523 1223.82 708.523C1224.59 706.508 1224.97 704.182 1224.97 701.545C1224.97 698.939 1224.6 696.659 1223.84 694.705C1223.08 692.735 1221.96 691.205 1220.47 690.114C1218.99 689.008 1217.16 688.455 1214.97 688.455C1212.7 688.455 1210.81 689.038 1209.29 690.205C1207.79 691.356 1206.66 692.924 1205.91 694.909C1205.16 696.879 1204.79 699.091 1204.79 701.545C1204.79 704.03 1205.17 706.288 1205.93 708.318C1206.7 710.333 1207.84 711.939 1209.34 713.136C1210.85 714.318 1212.73 714.909 1214.97 714.909ZM1283.54 691.909L1278.72 693.273C1278.42 692.47 1277.97 691.689 1277.38 690.932C1276.81 690.159 1276.02 689.523 1275.02 689.023C1274.02 688.523 1272.74 688.273 1271.18 688.273C1269.04 688.273 1267.26 688.765 1265.84 689.75C1264.43 690.72 1263.72 691.955 1263.72 693.455C1263.72 694.788 1264.21 695.841 1265.18 696.614C1266.15 697.386 1267.66 698.03 1269.72 698.545L1274.91 699.818C1278.03 700.576 1280.35 701.735 1281.88 703.295C1283.41 704.841 1284.18 706.833 1284.18 709.273C1284.18 711.273 1283.6 713.061 1282.45 714.636C1281.32 716.212 1279.72 717.455 1277.68 718.364C1275.63 719.273 1273.25 719.727 1270.54 719.727C1266.98 719.727 1264.04 718.955 1261.7 717.409C1259.37 715.864 1257.89 713.606 1257.27 710.636L1262.36 709.364C1262.85 711.242 1263.76 712.652 1265.11 713.591C1266.47 714.53 1268.25 715 1270.45 715C1272.95 715 1274.94 714.47 1276.41 713.409C1277.89 712.333 1278.63 711.045 1278.63 709.545C1278.63 708.333 1278.21 707.318 1277.36 706.5C1276.51 705.667 1275.21 705.045 1273.45 704.636L1267.63 703.273C1264.44 702.515 1262.09 701.341 1260.59 699.75C1259.1 698.144 1258.36 696.136 1258.36 693.727C1258.36 691.758 1258.91 690.015 1260.02 688.5C1261.14 686.985 1262.66 685.795 1264.59 684.932C1266.53 684.068 1268.72 683.636 1271.18 683.636C1274.63 683.636 1277.35 684.394 1279.32 685.909C1281.3 687.424 1282.71 689.424 1283.54 691.909ZM1292.25 719V684.091H1297.62V719H1292.25ZM1294.98 678.273C1293.93 678.273 1293.03 677.917 1292.28 677.205C1291.53 676.492 1291.16 675.636 1291.16 674.636C1291.16 673.636 1291.53 672.78 1292.28 672.068C1293.03 671.356 1293.93 671 1294.98 671C1296.03 671 1296.92 671.356 1297.66 672.068C1298.42 672.78 1298.8 673.636 1298.8 674.636C1298.8 675.636 1298.42 676.492 1297.66 677.205C1296.92 677.917 1296.03 678.273 1294.98 678.273ZM1312.8 698V719H1307.44V684.091H1312.62V689.545H1313.08C1313.89 687.773 1315.14 686.348 1316.8 685.273C1318.47 684.182 1320.62 683.636 1323.26 683.636C1325.62 683.636 1327.69 684.121 1329.46 685.091C1331.24 686.045 1332.61 687.5 1333.6 689.455C1334.58 691.394 1335.08 693.848 1335.08 696.818V719H1329.71V697.182C1329.71 694.439 1329 692.303 1327.58 690.773C1326.15 689.227 1324.2 688.455 1321.71 688.455C1320 688.455 1318.47 688.826 1317.12 689.568C1315.79 690.311 1314.74 691.394 1313.96 692.818C1313.19 694.242 1312.8 695.97 1312.8 698ZM1359.06 719.727C1355.79 719.727 1352.97 718.955 1350.61 717.409C1348.24 715.864 1346.42 713.735 1345.15 711.023C1343.88 708.311 1343.24 705.212 1343.24 701.727C1343.24 698.182 1343.89 695.053 1345.2 692.341C1346.51 689.614 1348.35 687.485 1350.7 685.955C1353.06 684.409 1355.82 683.636 1358.97 683.636C1361.42 683.636 1363.64 684.091 1365.61 685C1367.57 685.909 1369.19 687.182 1370.45 688.818C1371.7 690.455 1372.48 692.364 1372.79 694.545H1367.42C1367.01 692.955 1366.11 691.545 1364.7 690.318C1363.3 689.076 1361.42 688.455 1359.06 688.455C1356.97 688.455 1355.14 689 1353.56 690.091C1352 691.167 1350.78 692.689 1349.9 694.659C1349.04 696.614 1348.61 698.909 1348.61 701.545C1348.61 704.242 1349.03 706.591 1349.88 708.591C1350.74 710.591 1351.95 712.144 1353.51 713.25C1355.09 714.356 1356.94 714.909 1359.06 714.909C1360.45 714.909 1361.72 714.667 1362.86 714.182C1363.99 713.697 1364.95 713 1365.74 712.091C1366.53 711.182 1367.09 710.091 1367.42 708.818H1372.79C1372.48 710.879 1371.73 712.735 1370.54 714.386C1369.36 716.023 1367.79 717.326 1365.83 718.295C1363.89 719.25 1361.64 719.727 1359.06 719.727ZM1395.26 719.727C1391.9 719.727 1389 718.985 1386.56 717.5C1384.14 716 1382.26 713.909 1380.95 711.227C1379.64 708.53 1378.99 705.394 1378.99 701.818C1378.99 698.242 1379.64 695.091 1380.95 692.364C1382.26 689.621 1384.1 687.485 1386.45 685.955C1388.81 684.409 1391.57 683.636 1394.72 683.636C1396.54 683.636 1398.33 683.939 1400.11 684.545C1401.88 685.152 1403.49 686.136 1404.95 687.5C1406.4 688.848 1407.56 690.636 1408.42 692.864C1409.29 695.091 1409.72 697.833 1409.72 701.091V703.364H1382.81V698.727H1404.26C1404.26 696.758 1403.87 695 1403.08 693.455C1402.31 691.909 1401.2 690.689 1399.76 689.795C1398.34 688.902 1396.66 688.455 1394.72 688.455C1392.58 688.455 1390.73 688.985 1389.17 690.045C1387.63 691.091 1386.44 692.455 1385.61 694.136C1384.77 695.818 1384.36 697.621 1384.36 699.545V702.636C1384.36 705.273 1384.81 707.508 1385.72 709.341C1386.64 711.159 1387.92 712.545 1389.56 713.5C1391.2 714.439 1393.1 714.909 1395.26 714.909C1396.67 714.909 1397.95 714.712 1399.08 714.318C1400.23 713.909 1401.23 713.303 1402.06 712.5C1402.89 711.682 1403.54 710.667 1403.99 709.455L1409.17 710.909C1408.63 712.667 1407.71 714.212 1406.42 715.545C1405.14 716.864 1403.54 717.894 1401.65 718.636C1399.76 719.364 1397.63 719.727 1395.26 719.727ZM1441.6 719.659C1439.37 719.659 1437.39 719.273 1435.64 718.5C1433.9 717.712 1432.52 716.553 1431.51 715.023C1430.51 713.477 1430.01 711.553 1430.01 709.25C1430.01 707.311 1430.36 705.682 1431.08 704.364C1431.79 703.045 1432.76 701.985 1433.99 701.182C1435.21 700.379 1436.61 699.773 1438.17 699.364C1439.74 698.955 1441.39 698.667 1443.12 698.5C1445.15 698.288 1446.79 698.091 1448.03 697.909C1449.27 697.712 1450.18 697.424 1450.74 697.045C1451.3 696.667 1451.58 696.106 1451.58 695.364V695.227C1451.58 693.788 1451.12 692.674 1450.21 691.886C1449.32 691.098 1448.05 690.705 1446.39 690.705C1444.65 690.705 1443.27 691.091 1442.24 691.864C1441.21 692.621 1440.52 693.576 1440.19 694.727L1431.24 694C1431.69 691.879 1432.58 690.045 1433.92 688.5C1435.25 686.939 1436.97 685.742 1439.08 684.909C1441.2 684.061 1443.65 683.636 1446.44 683.636C1448.38 683.636 1450.24 683.864 1452.01 684.318C1453.8 684.773 1455.38 685.477 1456.76 686.432C1458.15 687.386 1459.25 688.614 1460.05 690.114C1460.86 691.598 1461.26 693.379 1461.26 695.455V719H1452.08V714.159H1451.8C1451.24 715.25 1450.49 716.212 1449.55 717.045C1448.61 717.864 1447.49 718.508 1446.17 718.977C1444.85 719.432 1443.33 719.659 1441.6 719.659ZM1444.37 712.977C1445.8 712.977 1447.05 712.697 1448.14 712.136C1449.24 711.561 1450.09 710.788 1450.71 709.818C1451.33 708.848 1451.64 707.75 1451.64 706.523V702.818C1451.34 703.015 1450.93 703.197 1450.39 703.364C1449.88 703.515 1449.3 703.659 1448.64 703.795C1447.99 703.917 1447.34 704.03 1446.69 704.136C1446.04 704.227 1445.45 704.311 1444.92 704.386C1443.78 704.553 1442.79 704.818 1441.94 705.182C1441.09 705.545 1440.43 706.038 1439.96 706.659C1439.49 707.265 1439.26 708.023 1439.26 708.932C1439.26 710.25 1439.74 711.258 1440.69 711.955C1441.66 712.636 1442.89 712.977 1444.37 712.977ZM1484.5 732.818C1481.36 732.818 1478.67 732.386 1476.43 731.523C1474.2 730.674 1472.43 729.515 1471.11 728.045C1469.79 726.576 1468.94 724.924 1468.54 723.091L1477.5 721.886C1477.77 722.583 1478.2 723.235 1478.79 723.841C1479.38 724.447 1480.16 724.932 1481.13 725.295C1482.12 725.674 1483.32 725.864 1484.72 725.864C1486.83 725.864 1488.57 725.348 1489.93 724.318C1491.31 723.303 1492 721.598 1492 719.205V712.818H1491.59C1491.16 713.788 1490.53 714.705 1489.68 715.568C1488.83 716.432 1487.74 717.136 1486.41 717.682C1485.07 718.227 1483.48 718.5 1481.63 718.5C1479.01 718.5 1476.63 717.894 1474.47 716.682C1472.34 715.455 1470.63 713.583 1469.36 711.068C1468.1 708.538 1467.47 705.341 1467.47 701.477C1467.47 697.523 1468.12 694.22 1469.41 691.568C1470.69 688.917 1472.41 686.932 1474.54 685.614C1476.69 684.295 1479.05 683.636 1481.61 683.636C1483.57 683.636 1485.2 683.97 1486.52 684.636C1487.84 685.288 1488.9 686.106 1489.7 687.091C1490.52 688.061 1491.15 689.015 1491.59 689.955H1491.95V684.091H1501.57V719.341C1501.57 722.311 1500.84 724.795 1499.38 726.795C1497.93 728.795 1495.91 730.295 1493.34 731.295C1490.78 732.311 1487.83 732.818 1484.5 732.818ZM1484.7 711.227C1486.26 711.227 1487.58 710.841 1488.66 710.068C1489.75 709.28 1490.58 708.159 1491.16 706.705C1491.75 705.235 1492.04 703.477 1492.04 701.432C1492.04 699.386 1491.75 697.614 1491.18 696.114C1490.6 694.598 1489.77 693.424 1488.68 692.591C1487.59 691.758 1486.26 691.341 1484.7 691.341C1483.11 691.341 1481.77 691.773 1480.68 692.636C1479.59 693.485 1478.76 694.667 1478.2 696.182C1477.64 697.697 1477.36 699.447 1477.36 701.432C1477.36 703.447 1477.64 705.189 1478.2 706.659C1478.78 708.114 1479.6 709.242 1480.68 710.045C1481.77 710.833 1483.11 711.227 1484.7 711.227ZM1525.18 719.682C1521.59 719.682 1518.5 718.955 1515.91 717.5C1513.33 716.03 1511.35 713.955 1509.95 711.273C1508.56 708.576 1507.86 705.386 1507.86 701.705C1507.86 698.114 1508.56 694.962 1509.95 692.25C1511.35 689.538 1513.31 687.424 1515.84 685.909C1518.38 684.394 1521.37 683.636 1524.79 683.636C1527.1 683.636 1529.24 684.008 1531.22 684.75C1533.22 685.477 1534.97 686.576 1536.45 688.045C1537.95 689.515 1539.12 691.364 1539.95 693.591C1540.79 695.803 1541.2 698.394 1541.2 701.364V704.023H1511.72V698.023H1532.09C1532.09 696.629 1531.79 695.394 1531.18 694.318C1530.57 693.242 1529.73 692.402 1528.66 691.795C1527.6 691.174 1526.36 690.864 1524.95 690.864C1523.48 690.864 1522.18 691.205 1521.04 691.886C1519.92 692.553 1519.04 693.455 1518.41 694.591C1517.77 695.712 1517.44 696.962 1517.43 698.341V704.045C1517.43 705.773 1517.75 707.265 1518.38 708.523C1519.04 709.78 1519.95 710.75 1521.13 711.432C1522.32 712.114 1523.72 712.455 1525.34 712.455C1526.41 712.455 1527.4 712.303 1528.29 712C1529.19 711.697 1529.95 711.242 1530.59 710.636C1531.22 710.03 1531.71 709.288 1532.04 708.409L1541 709C1540.54 711.152 1539.61 713.03 1538.2 714.636C1536.81 716.227 1535 717.47 1532.79 718.364C1530.6 719.242 1528.06 719.682 1525.18 719.682ZM1582.49 672.455V719H1572.65V681.795H1572.38L1561.72 688.477V679.75L1573.24 672.455H1582.49ZM1592.85 710.818V703.068L1612.28 672.455H1618.96V683.182H1615.01L1602.76 702.568V702.932H1630.37V710.818H1592.85ZM1615.19 719V708.455L1615.37 705.023V672.455H1624.6V719H1615.19ZM1641.97 719.364C1640.85 719.364 1639.89 718.962 1639.09 718.159C1638.29 717.356 1637.88 716.394 1637.88 715.273C1637.88 714.152 1638.29 713.189 1639.09 712.386C1639.89 711.583 1640.85 711.182 1641.97 711.182C1643.1 711.182 1644.06 711.583 1644.86 712.386C1645.66 713.189 1646.07 714.152 1646.07 715.273C1646.07 716.015 1645.88 716.697 1645.5 717.318C1645.13 717.939 1644.64 718.439 1644.02 718.818C1643.41 719.182 1642.73 719.364 1641.97 719.364Z" fill="white"/>
</g>
<defs>
<linearGradient id="paint0_linear_1_49" x1="-24.5" y1="418" x2="858.326" y2="1543.08" gradientUnits="userSpaceOnUse">
<stop stop-color="#072941"/>
<stop offset="0.5" stop-color="#095287"/>
<stop offset="1" stop-color="#268FDB"/>
</linearGradient>
<clipPath id="clip0_1_49">
<rect width="1920" height="1080" fill="white"/>
</clipPath>
</defs>
</svg>
