<svg width="1920" height="1080" viewBox="0 0 1920 1080" fill="none" xmlns="http://www.w3.org/2000/svg">
<g clip-path="url(#clip0_1_49)">
<rect width="1920" height="1080" fill="url(#paint0_linear_1_49)"/>
<path d="M607.057 419.364C606.33 412.03 603.208 406.333 597.693 402.273C592.178 398.212 584.693 396.182 575.239 396.182C568.814 396.182 563.39 397.091 558.966 398.909C554.542 400.667 551.148 403.121 548.784 406.273C546.481 409.424 545.33 413 545.33 417C545.208 420.333 545.905 423.242 547.42 425.727C548.996 428.212 551.148 430.364 553.875 432.182C556.602 433.939 559.754 435.485 563.33 436.818C566.905 438.091 570.723 439.182 574.784 440.091L591.511 444.091C599.633 445.909 607.087 448.333 613.875 451.364C620.663 454.394 626.542 458.121 631.511 462.545C636.481 466.97 640.33 472.182 643.057 478.182C645.845 484.182 647.269 491.061 647.33 498.818C647.269 510.212 644.36 520.091 638.602 528.455C632.905 536.758 624.663 543.212 613.875 547.818C603.148 552.364 590.208 554.636 575.057 554.636C560.027 554.636 546.936 552.333 535.784 547.727C524.693 543.121 516.027 536.303 509.784 527.273C503.602 518.182 500.36 506.939 500.057 493.545H538.148C538.572 499.788 540.36 505 543.511 509.182C546.723 513.303 550.996 516.424 556.33 518.545C561.723 520.606 567.814 521.636 574.602 521.636C581.269 521.636 587.057 520.667 591.966 518.727C596.936 516.788 600.784 514.091 603.511 510.636C606.239 507.182 607.602 503.212 607.602 498.727C607.602 494.545 606.36 491.03 603.875 488.182C601.451 485.333 597.875 482.909 593.148 480.909C588.481 478.909 582.754 477.091 575.966 475.455L555.693 470.364C539.996 466.545 527.602 460.576 518.511 452.455C509.42 444.333 504.905 433.394 504.966 419.636C504.905 408.364 507.905 398.515 513.966 390.091C520.087 381.667 528.481 375.091 539.148 370.364C549.814 365.636 561.936 363.273 575.511 363.273C589.33 363.273 601.39 365.636 611.693 370.364C622.057 375.091 630.117 381.667 635.875 390.091C641.633 398.515 644.602 408.273 644.784 419.364H607.057ZM696.989 604.364C692.08 604.364 687.473 603.97 683.17 603.182C678.928 602.455 675.413 601.515 672.625 600.364L681.352 571.455C685.898 572.848 689.989 573.606 693.625 573.727C697.322 573.848 700.504 573 703.17 571.182C705.898 569.364 708.11 566.273 709.807 561.909L712.08 556L661.989 412.364H702.716L731.625 514.909H733.08L762.261 412.364H803.261L748.989 567.091C746.383 574.606 742.837 581.152 738.352 586.727C733.928 592.364 728.322 596.697 721.534 599.727C714.746 602.818 706.564 604.364 696.989 604.364ZM924.807 419.364C924.08 412.03 920.958 406.333 915.443 402.273C909.928 398.212 902.443 396.182 892.989 396.182C886.564 396.182 881.14 397.091 876.716 398.909C872.292 400.667 868.898 403.121 866.534 406.273C864.231 409.424 863.08 413 863.08 417C862.958 420.333 863.655 423.242 865.17 425.727C866.746 428.212 868.898 430.364 871.625 432.182C874.352 433.939 877.504 435.485 881.08 436.818C884.655 438.091 888.473 439.182 892.534 440.091L909.261 444.091C917.383 445.909 924.837 448.333 931.625 451.364C938.413 454.394 944.292 458.121 949.261 462.545C954.231 466.97 958.08 472.182 960.807 478.182C963.595 484.182 965.019 491.061 965.08 498.818C965.019 510.212 962.11 520.091 956.352 528.455C950.655 536.758 942.413 543.212 931.625 547.818C920.898 552.364 907.958 554.636 892.807 554.636C877.777 554.636 864.686 552.333 853.534 547.727C842.443 543.121 833.777 536.303 827.534 527.273C821.352 518.182 818.11 506.939 817.807 493.545H855.898C856.322 499.788 858.11 505 861.261 509.182C864.473 513.303 868.746 516.424 874.08 518.545C879.473 520.606 885.564 521.636 892.352 521.636C899.019 521.636 904.807 520.667 909.716 518.727C914.686 516.788 918.534 514.091 921.261 510.636C923.989 507.182 925.352 503.212 925.352 498.727C925.352 494.545 924.11 491.03 921.625 488.182C919.201 485.333 915.625 482.909 910.898 480.909C906.231 478.909 900.504 477.091 893.716 475.455L873.443 470.364C857.746 466.545 845.352 460.576 836.261 452.455C827.17 444.333 822.655 433.394 822.716 419.636C822.655 408.364 825.655 398.515 831.716 390.091C837.837 381.667 846.231 375.091 856.898 370.364C867.564 365.636 879.686 363.273 893.261 363.273C907.08 363.273 919.14 365.636 929.443 370.364C939.807 375.091 947.867 381.667 953.625 390.091C959.383 398.515 962.352 408.273 962.534 419.364H924.807ZM1082.9 552H1040.72L1104.99 365.818H1155.72L1219.9 552H1177.72L1131.08 408.364H1129.62L1082.9 552ZM1080.26 478.818H1179.9V509.545H1080.26V478.818ZM1241.58 604.364V412.364H1279.76V435.818H1281.49C1283.19 432.061 1285.64 428.242 1288.85 424.364C1292.13 420.424 1296.37 417.152 1301.58 414.545C1306.85 411.879 1313.4 410.545 1321.22 410.545C1331.4 410.545 1340.79 413.212 1349.4 418.545C1358 423.818 1364.88 431.788 1370.03 442.455C1375.19 453.061 1377.76 466.364 1377.76 482.364C1377.76 497.939 1375.25 511.091 1370.22 521.818C1365.25 532.485 1358.46 540.576 1349.85 546.091C1341.31 551.545 1331.73 554.273 1321.12 554.273C1313.61 554.273 1307.22 553.03 1301.94 550.545C1296.73 548.061 1292.46 544.939 1289.12 541.182C1285.79 537.364 1283.25 533.515 1281.49 529.636H1280.31V604.364H1241.58ZM1279.49 482.182C1279.49 490.485 1280.64 497.727 1282.94 503.909C1285.25 510.091 1288.58 514.909 1292.94 518.364C1297.31 521.758 1302.61 523.455 1308.85 523.455C1315.16 523.455 1320.49 521.727 1324.85 518.273C1329.22 514.758 1332.52 509.909 1334.76 503.727C1337.06 497.485 1338.22 490.303 1338.22 482.182C1338.22 474.121 1337.09 467.03 1334.85 460.909C1332.61 454.788 1329.31 450 1324.94 446.545C1320.58 443.091 1315.22 441.364 1308.85 441.364C1302.55 441.364 1297.22 443.03 1292.85 446.364C1288.55 449.697 1285.25 454.424 1282.94 460.545C1280.64 466.667 1279.49 473.879 1279.49 482.182ZM1403.58 604.364V412.364H1441.76V435.818H1443.49C1445.19 432.061 1447.64 428.242 1450.85 424.364C1454.13 420.424 1458.37 417.152 1463.58 414.545C1468.85 411.879 1475.4 410.545 1483.22 410.545C1493.4 410.545 1502.79 413.212 1511.4 418.545C1520 423.818 1526.88 431.788 1532.03 442.455C1537.19 453.061 1539.76 466.364 1539.76 482.364C1539.76 497.939 1537.25 511.091 1532.22 521.818C1527.25 532.485 1520.46 540.576 1511.85 546.091C1503.31 551.545 1493.73 554.273 1483.12 554.273C1475.61 554.273 1469.22 553.03 1463.94 550.545C1458.73 548.061 1454.46 544.939 1451.12 541.182C1447.79 537.364 1445.25 533.515 1443.49 529.636H1442.31V604.364H1403.58ZM1441.49 482.182C1441.49 490.485 1442.64 497.727 1444.94 503.909C1447.25 510.091 1450.58 514.909 1454.94 518.364C1459.31 521.758 1464.61 523.455 1470.85 523.455C1477.16 523.455 1482.49 521.727 1486.85 518.273C1491.22 514.758 1494.52 509.909 1496.76 503.727C1499.06 497.485 1500.22 490.303 1500.22 482.182C1500.22 474.121 1499.09 467.03 1496.85 460.909C1494.61 454.788 1491.31 450 1486.94 446.545C1482.58 443.091 1477.22 441.364 1470.85 441.364C1464.55 441.364 1459.22 443.03 1454.85 446.364C1450.55 449.697 1447.25 454.424 1444.94 460.545C1442.64 466.667 1441.49 473.879 1441.49 482.182ZM449.219 719H434.855V672.455H449.855C454.37 672.455 458.234 673.386 461.446 675.25C464.658 677.098 467.12 679.758 468.832 683.227C470.545 686.682 471.401 690.818 471.401 695.636C471.401 700.485 470.537 704.659 468.81 708.159C467.082 711.644 464.567 714.326 461.264 716.205C457.961 718.068 453.946 719 449.219 719ZM440.491 714H448.855C452.704 714 455.893 713.258 458.423 711.773C460.954 710.288 462.84 708.174 464.082 705.432C465.325 702.689 465.946 699.424 465.946 695.636C465.946 691.879 465.332 688.644 464.105 685.932C462.878 683.205 461.045 681.114 458.605 679.659C456.166 678.189 453.128 677.455 449.491 677.455H440.491V714ZM494.764 719.727C491.401 719.727 488.499 718.985 486.06 717.5C483.635 716 481.764 713.909 480.446 711.227C479.143 708.53 478.491 705.394 478.491 701.818C478.491 698.242 479.143 695.091 480.446 692.364C481.764 689.621 483.598 687.485 485.946 685.955C488.31 684.409 491.067 683.636 494.219 683.636C496.037 683.636 497.832 683.939 499.605 684.545C501.378 685.152 502.991 686.136 504.446 687.5C505.901 688.848 507.06 690.636 507.923 692.864C508.787 695.091 509.219 697.833 509.219 701.091V703.364H482.31V698.727H503.764C503.764 696.758 503.37 695 502.582 693.455C501.81 691.909 500.704 690.689 499.264 689.795C497.84 688.902 496.158 688.455 494.219 688.455C492.082 688.455 490.234 688.985 488.673 690.045C487.128 691.091 485.938 692.455 485.105 694.136C484.272 695.818 483.855 697.621 483.855 699.545V702.636C483.855 705.273 484.31 707.508 485.219 709.341C486.143 711.159 487.423 712.545 489.06 713.5C490.696 714.439 492.598 714.909 494.764 714.909C496.173 714.909 497.446 714.712 498.582 714.318C499.734 713.909 500.726 713.303 501.56 712.5C502.393 711.682 503.037 710.667 503.491 709.455L508.673 710.909C508.128 712.667 507.211 714.212 505.923 715.545C504.635 716.864 503.045 717.894 501.151 718.636C499.257 719.364 497.128 719.727 494.764 719.727ZM544.861 684.091L531.952 719H526.497L513.588 684.091H519.406L529.043 711.909H529.406L539.043 684.091H544.861ZM565.327 719.727C561.963 719.727 559.062 718.985 556.622 717.5C554.198 716 552.327 713.909 551.009 711.227C549.705 708.53 549.054 705.394 549.054 701.818C549.054 698.242 549.705 695.091 551.009 692.364C552.327 689.621 554.16 687.485 556.509 685.955C558.872 684.409 561.63 683.636 564.781 683.636C566.599 683.636 568.395 683.939 570.168 684.545C571.94 685.152 573.554 686.136 575.009 687.5C576.463 688.848 577.622 690.636 578.486 692.864C579.349 695.091 579.781 697.833 579.781 701.091V703.364H552.872V698.727H574.327C574.327 696.758 573.933 695 573.145 693.455C572.372 691.909 571.266 690.689 569.827 689.795C568.402 688.902 566.721 688.455 564.781 688.455C562.645 688.455 560.796 688.985 559.236 690.045C557.69 691.091 556.501 692.455 555.668 694.136C554.834 695.818 554.418 697.621 554.418 699.545V702.636C554.418 705.273 554.872 707.508 555.781 709.341C556.705 711.159 557.986 712.545 559.622 713.5C561.259 714.439 563.16 714.909 565.327 714.909C566.736 714.909 568.009 714.712 569.145 714.318C570.296 713.909 571.289 713.303 572.122 712.5C572.955 711.682 573.599 710.667 574.054 709.455L579.236 710.909C578.69 712.667 577.774 714.212 576.486 715.545C575.198 716.864 573.607 717.894 571.713 718.636C569.819 719.364 567.69 719.727 565.327 719.727ZM593.304 672.455V719H587.94V672.455H593.304ZM617.31 719.727C614.158 719.727 611.393 718.977 609.014 717.477C606.651 715.977 604.802 713.879 603.469 711.182C602.151 708.485 601.491 705.333 601.491 701.727C601.491 698.091 602.151 694.917 603.469 692.205C604.802 689.492 606.651 687.386 609.014 685.886C611.393 684.386 614.158 683.636 617.31 683.636C620.461 683.636 623.219 684.386 625.582 685.886C627.961 687.386 629.81 689.492 631.128 692.205C632.461 694.917 633.128 698.091 633.128 701.727C633.128 705.333 632.461 708.485 631.128 711.182C629.81 713.879 627.961 715.977 625.582 717.477C623.219 718.977 620.461 719.727 617.31 719.727ZM617.31 714.909C619.704 714.909 621.673 714.295 623.219 713.068C624.764 711.841 625.908 710.227 626.651 708.227C627.393 706.227 627.764 704.061 627.764 701.727C627.764 699.394 627.393 697.22 626.651 695.205C625.908 693.189 624.764 691.561 623.219 690.318C621.673 689.076 619.704 688.455 617.31 688.455C614.916 688.455 612.946 689.076 611.401 690.318C609.855 691.561 608.711 693.189 607.969 695.205C607.226 697.22 606.855 699.394 606.855 701.727C606.855 704.061 607.226 706.227 607.969 708.227C608.711 710.227 609.855 711.841 611.401 713.068C612.946 714.295 614.916 714.909 617.31 714.909ZM655.952 719.727C652.588 719.727 649.687 718.985 647.247 717.5C644.823 716 642.952 713.909 641.634 711.227C640.33 708.53 639.679 705.394 639.679 701.818C639.679 698.242 640.33 695.091 641.634 692.364C642.952 689.621 644.785 687.485 647.134 685.955C649.497 684.409 652.255 683.636 655.406 683.636C657.224 683.636 659.02 683.939 660.793 684.545C662.565 685.152 664.179 686.136 665.634 687.5C667.088 688.848 668.247 690.636 669.111 692.864C669.974 695.091 670.406 697.833 670.406 701.091V703.364H643.497V698.727H664.952C664.952 696.758 664.558 695 663.77 693.455C662.997 691.909 661.891 690.689 660.452 689.795C659.027 688.902 657.346 688.455 655.406 688.455C653.27 688.455 651.421 688.985 649.861 690.045C648.315 691.091 647.126 692.455 646.293 694.136C645.459 695.818 645.043 697.621 645.043 699.545V702.636C645.043 705.273 645.497 707.508 646.406 709.341C647.33 711.159 648.611 712.545 650.247 713.5C651.884 714.439 653.785 714.909 655.952 714.909C657.361 714.909 658.634 714.712 659.77 714.318C660.921 713.909 661.914 713.303 662.747 712.5C663.58 711.682 664.224 710.667 664.679 709.455L669.861 710.909C669.315 712.667 668.399 714.212 667.111 715.545C665.823 716.864 664.232 717.894 662.338 718.636C660.444 719.364 658.315 719.727 655.952 719.727ZM691.747 719.727C688.838 719.727 686.27 718.992 684.043 717.523C681.815 716.038 680.073 713.947 678.815 711.25C677.558 708.538 676.929 705.333 676.929 701.636C676.929 697.97 677.558 694.788 678.815 692.091C680.073 689.394 681.823 687.311 684.065 685.841C686.308 684.371 688.899 683.636 691.838 683.636C694.111 683.636 695.906 684.015 697.224 684.773C698.558 685.515 699.573 686.364 700.27 687.318C700.982 688.258 701.535 689.03 701.929 689.636H702.384V672.455H707.747V719H702.565V713.636H701.929C701.535 714.273 700.974 715.076 700.247 716.045C699.52 717 698.482 717.856 697.134 718.614C695.785 719.356 693.99 719.727 691.747 719.727ZM692.474 714.909C694.626 714.909 696.444 714.348 697.929 713.227C699.414 712.091 700.543 710.523 701.315 708.523C702.088 706.508 702.474 704.182 702.474 701.545C702.474 698.939 702.096 696.659 701.338 694.705C700.58 692.735 699.459 691.205 697.974 690.114C696.49 689.008 694.656 688.455 692.474 688.455C690.202 688.455 688.308 689.038 686.793 690.205C685.293 691.356 684.164 692.924 683.406 694.909C682.664 696.879 682.293 699.091 682.293 701.545C682.293 704.03 682.671 706.288 683.429 708.318C684.202 710.333 685.338 711.939 686.838 713.136C688.353 714.318 690.232 714.909 692.474 714.909ZM746.588 719.818C744.376 719.818 742.368 719.402 740.565 718.568C738.762 717.72 737.33 716.5 736.27 714.909C735.209 713.303 734.679 711.364 734.679 709.091C734.679 707.091 735.073 705.47 735.861 704.227C736.649 702.97 737.702 701.985 739.02 701.273C740.338 700.561 741.793 700.03 743.384 699.682C744.99 699.318 746.603 699.03 748.224 698.818C750.346 698.545 752.065 698.341 753.384 698.205C754.717 698.053 755.687 697.803 756.293 697.455C756.914 697.106 757.224 696.5 757.224 695.636V695.455C757.224 693.212 756.611 691.47 755.384 690.227C754.171 688.985 752.33 688.364 749.861 688.364C747.3 688.364 745.293 688.924 743.838 690.045C742.384 691.167 741.361 692.364 740.77 693.636L735.679 691.818C736.588 689.697 737.8 688.045 739.315 686.864C740.846 685.667 742.512 684.833 744.315 684.364C746.134 683.879 747.921 683.636 749.679 683.636C750.8 683.636 752.088 683.773 753.543 684.045C755.012 684.303 756.429 684.841 757.793 685.659C759.171 686.477 760.315 687.712 761.224 689.364C762.134 691.015 762.588 693.227 762.588 696V719H757.224V714.273H756.952C756.588 715.03 755.982 715.841 755.134 716.705C754.285 717.568 753.156 718.303 751.747 718.909C750.338 719.515 748.618 719.818 746.588 719.818ZM747.406 715C749.527 715 751.315 714.583 752.77 713.75C754.24 712.917 755.346 711.841 756.088 710.523C756.846 709.205 757.224 707.818 757.224 706.364V701.455C756.997 701.727 756.497 701.977 755.724 702.205C754.967 702.417 754.088 702.606 753.088 702.773C752.103 702.924 751.141 703.061 750.202 703.182C749.277 703.288 748.527 703.379 747.952 703.455C746.558 703.636 745.255 703.932 744.043 704.341C742.846 704.735 741.876 705.333 741.134 706.136C740.406 706.924 740.043 708 740.043 709.364C740.043 711.227 740.732 712.636 742.111 713.591C743.505 714.53 745.27 715 747.406 715ZM777.741 698V719H772.378V684.091H777.56V689.545H778.014C778.832 687.773 780.075 686.348 781.741 685.273C783.408 684.182 785.56 683.636 788.196 683.636C790.56 683.636 792.628 684.121 794.401 685.091C796.173 686.045 797.552 687.5 798.537 689.455C799.522 691.394 800.014 693.848 800.014 696.818V719H794.651V697.182C794.651 694.439 793.938 692.303 792.514 690.773C791.09 689.227 789.135 688.455 786.651 688.455C784.938 688.455 783.408 688.826 782.06 689.568C780.726 690.311 779.673 691.394 778.901 692.818C778.128 694.242 777.741 695.97 777.741 698ZM822.997 719.727C820.088 719.727 817.52 718.992 815.293 717.523C813.065 716.038 811.323 713.947 810.065 711.25C808.808 708.538 808.179 705.333 808.179 701.636C808.179 697.97 808.808 694.788 810.065 692.091C811.323 689.394 813.073 687.311 815.315 685.841C817.558 684.371 820.149 683.636 823.088 683.636C825.361 683.636 827.156 684.015 828.474 684.773C829.808 685.515 830.823 686.364 831.52 687.318C832.232 688.258 832.785 689.03 833.179 689.636H833.634V672.455H838.997V719H833.815V713.636H833.179C832.785 714.273 832.224 715.076 831.497 716.045C830.77 717 829.732 717.856 828.384 718.614C827.035 719.356 825.24 719.727 822.997 719.727ZM823.724 714.909C825.876 714.909 827.694 714.348 829.179 713.227C830.664 712.091 831.793 710.523 832.565 708.523C833.338 706.508 833.724 704.182 833.724 701.545C833.724 698.939 833.346 696.659 832.588 694.705C831.83 692.735 830.709 691.205 829.224 690.114C827.74 689.008 825.906 688.455 823.724 688.455C821.452 688.455 819.558 689.038 818.043 690.205C816.543 691.356 815.414 692.924 814.656 694.909C813.914 696.879 813.543 699.091 813.543 701.545C813.543 704.03 813.921 706.288 814.679 708.318C815.452 710.333 816.588 711.939 818.088 713.136C819.603 714.318 821.482 714.909 823.724 714.909ZM867.565 719V684.091H872.747V689.545H873.202C873.929 687.682 875.103 686.235 876.724 685.205C878.346 684.159 880.293 683.636 882.565 683.636C884.868 683.636 886.785 684.159 888.315 685.205C889.861 686.235 891.065 687.682 891.929 689.545H892.293C893.187 687.742 894.527 686.311 896.315 685.25C898.103 684.174 900.247 683.636 902.747 683.636C905.868 683.636 908.421 684.614 910.406 686.568C912.391 688.508 913.384 691.53 913.384 695.636V719H908.02V695.636C908.02 693.061 907.315 691.22 905.906 690.114C904.497 689.008 902.838 688.455 900.929 688.455C898.474 688.455 896.573 689.197 895.224 690.682C893.876 692.152 893.202 694.015 893.202 696.273V719H887.747V695.091C887.747 693.106 887.103 691.508 885.815 690.295C884.527 689.068 882.868 688.455 880.838 688.455C879.444 688.455 878.141 688.826 876.929 689.568C875.732 690.311 874.762 691.341 874.02 692.659C873.293 693.962 872.929 695.47 872.929 697.182V719H867.565ZM933.463 719.818C931.251 719.818 929.243 719.402 927.44 718.568C925.637 717.72 924.205 716.5 923.145 714.909C922.084 713.303 921.554 711.364 921.554 709.091C921.554 707.091 921.948 705.47 922.736 704.227C923.524 702.97 924.577 701.985 925.895 701.273C927.213 700.561 928.668 700.03 930.259 699.682C931.865 699.318 933.478 699.03 935.099 698.818C937.221 698.545 938.94 698.341 940.259 698.205C941.592 698.053 942.562 697.803 943.168 697.455C943.789 697.106 944.099 696.5 944.099 695.636V695.455C944.099 693.212 943.486 691.47 942.259 690.227C941.046 688.985 939.205 688.364 936.736 688.364C934.175 688.364 932.168 688.924 930.713 690.045C929.259 691.167 928.236 692.364 927.645 693.636L922.554 691.818C923.463 689.697 924.675 688.045 926.19 686.864C927.721 685.667 929.387 684.833 931.19 684.364C933.009 683.879 934.796 683.636 936.554 683.636C937.675 683.636 938.963 683.773 940.418 684.045C941.887 684.303 943.304 684.841 944.668 685.659C946.046 686.477 947.19 687.712 948.099 689.364C949.009 691.015 949.463 693.227 949.463 696V719H944.099V714.273H943.827C943.463 715.03 942.857 715.841 942.009 716.705C941.16 717.568 940.031 718.303 938.622 718.909C937.213 719.515 935.493 719.818 933.463 719.818ZM934.281 715C936.402 715 938.19 714.583 939.645 713.75C941.115 712.917 942.221 711.841 942.963 710.523C943.721 709.205 944.099 707.818 944.099 706.364V701.455C943.872 701.727 943.372 701.977 942.599 702.205C941.842 702.417 940.963 702.606 939.963 702.773C938.978 702.924 938.016 703.061 937.077 703.182C936.152 703.288 935.402 703.379 934.827 703.455C933.433 703.636 932.13 703.932 930.918 704.341C929.721 704.735 928.751 705.333 928.009 706.136C927.281 706.924 926.918 708 926.918 709.364C926.918 711.227 927.607 712.636 928.986 713.591C930.38 714.53 932.145 715 934.281 715ZM959.253 719V684.091H964.616V719H959.253ZM961.98 678.273C960.935 678.273 960.033 677.917 959.276 677.205C958.533 676.492 958.162 675.636 958.162 674.636C958.162 673.636 958.533 672.78 959.276 672.068C960.033 671.356 960.935 671 961.98 671C963.026 671 963.92 671.356 964.662 672.068C965.42 672.78 965.798 673.636 965.798 674.636C965.798 675.636 965.42 676.492 964.662 677.205C963.92 677.917 963.026 678.273 961.98 678.273ZM979.804 698V719H974.44V684.091H979.622V689.545H980.077C980.895 687.773 982.137 686.348 983.804 685.273C985.471 684.182 987.622 683.636 990.259 683.636C992.622 683.636 994.69 684.121 996.463 685.091C998.236 686.045 999.615 687.5 1000.6 689.455C1001.58 691.394 1002.08 693.848 1002.08 696.818V719H996.713V697.182C996.713 694.439 996.001 692.303 994.577 690.773C993.152 689.227 991.198 688.455 988.713 688.455C987.001 688.455 985.471 688.826 984.122 689.568C982.789 690.311 981.736 691.394 980.963 692.818C980.19 694.242 979.804 695.97 979.804 698ZM1027.06 684.091V688.636H1008.97V684.091H1027.06ZM1014.24 675.727H1019.61V709C1019.61 710.515 1019.82 711.652 1020.26 712.409C1020.72 713.152 1021.29 713.652 1021.99 713.909C1022.7 714.152 1023.45 714.273 1024.24 714.273C1024.83 714.273 1025.32 714.242 1025.7 714.182C1026.07 714.106 1026.38 714.045 1026.61 714L1027.7 718.818C1027.33 718.955 1026.82 719.091 1026.17 719.227C1025.52 719.379 1024.7 719.455 1023.7 719.455C1022.18 719.455 1020.7 719.129 1019.24 718.477C1017.8 717.826 1016.61 716.833 1015.65 715.5C1014.71 714.167 1014.24 712.485 1014.24 710.455V675.727ZM1045.4 719.818C1043.19 719.818 1041.18 719.402 1039.38 718.568C1037.57 717.72 1036.14 716.5 1035.08 714.909C1034.02 713.303 1033.49 711.364 1033.49 709.091C1033.49 707.091 1033.89 705.47 1034.67 704.227C1035.46 702.97 1036.51 701.985 1037.83 701.273C1039.15 700.561 1040.61 700.03 1042.2 699.682C1043.8 699.318 1045.42 699.03 1047.04 698.818C1049.16 698.545 1050.88 698.341 1052.2 698.205C1053.53 698.053 1054.5 697.803 1055.11 697.455C1055.73 697.106 1056.04 696.5 1056.04 695.636V695.455C1056.04 693.212 1055.42 691.47 1054.2 690.227C1052.98 688.985 1051.14 688.364 1048.67 688.364C1046.11 688.364 1044.11 688.924 1042.65 690.045C1041.2 691.167 1040.17 692.364 1039.58 693.636L1034.49 691.818C1035.4 689.697 1036.61 688.045 1038.13 686.864C1039.66 685.667 1041.32 684.833 1043.13 684.364C1044.95 683.879 1046.73 683.636 1048.49 683.636C1049.61 683.636 1050.9 683.773 1052.36 684.045C1053.82 684.303 1055.24 684.841 1056.61 685.659C1057.98 686.477 1059.13 687.712 1060.04 689.364C1060.95 691.015 1061.4 693.227 1061.4 696V719H1056.04V714.273H1055.76C1055.4 715.03 1054.79 715.841 1053.95 716.705C1053.1 717.568 1051.97 718.303 1050.56 718.909C1049.15 719.515 1047.43 719.818 1045.4 719.818ZM1046.22 715C1048.34 715 1050.13 714.583 1051.58 713.75C1053.05 712.917 1054.16 711.841 1054.9 710.523C1055.66 709.205 1056.04 707.818 1056.04 706.364V701.455C1055.81 701.727 1055.31 701.977 1054.54 702.205C1053.78 702.417 1052.9 702.606 1051.9 702.773C1050.92 702.924 1049.95 703.061 1049.01 703.182C1048.09 703.288 1047.34 703.379 1046.76 703.455C1045.37 703.636 1044.07 703.932 1042.86 704.341C1041.66 704.735 1040.69 705.333 1039.95 706.136C1039.22 706.924 1038.86 708 1038.86 709.364C1038.86 711.227 1039.54 712.636 1040.92 713.591C1042.32 714.53 1044.08 715 1046.22 715ZM1071.19 719V684.091H1076.55V719H1071.19ZM1073.92 678.273C1072.87 678.273 1071.97 677.917 1071.21 677.205C1070.47 676.492 1070.1 675.636 1070.1 674.636C1070.1 673.636 1070.47 672.78 1071.21 672.068C1071.97 671.356 1072.87 671 1073.92 671C1074.96 671 1075.86 671.356 1076.6 672.068C1077.36 672.78 1077.74 673.636 1077.74 674.636C1077.74 675.636 1077.36 676.492 1076.6 677.205C1075.86 677.917 1074.96 678.273 1073.92 678.273ZM1091.74 698V719H1086.38V684.091H1091.56V689.545H1092.01C1092.83 687.773 1094.07 686.348 1095.74 685.273C1097.41 684.182 1099.56 683.636 1102.2 683.636C1104.56 683.636 1106.63 684.121 1108.4 685.091C1110.17 686.045 1111.55 687.5 1112.54 689.455C1113.52 691.394 1114.01 693.848 1114.01 696.818V719H1108.65V697.182C1108.65 694.439 1107.94 692.303 1106.51 690.773C1105.09 689.227 1103.14 688.455 1100.65 688.455C1098.94 688.455 1097.41 688.826 1096.06 689.568C1094.73 690.311 1093.67 691.394 1092.9 692.818C1092.13 694.242 1091.74 695.97 1091.74 698ZM1138.45 719.727C1135.09 719.727 1132.19 718.985 1129.75 717.5C1127.32 716 1125.45 713.909 1124.13 711.227C1122.83 708.53 1122.18 705.394 1122.18 701.818C1122.18 698.242 1122.83 695.091 1124.13 692.364C1125.45 689.621 1127.29 687.485 1129.63 685.955C1132 684.409 1134.75 683.636 1137.91 683.636C1139.72 683.636 1141.52 683.939 1143.29 684.545C1145.07 685.152 1146.68 686.136 1148.13 687.5C1149.59 688.848 1150.75 690.636 1151.61 692.864C1152.47 695.091 1152.91 697.833 1152.91 701.091V703.364H1126V698.727H1147.45C1147.45 696.758 1147.06 695 1146.27 693.455C1145.5 691.909 1144.39 690.689 1142.95 689.795C1141.53 688.902 1139.85 688.455 1137.91 688.455C1135.77 688.455 1133.92 688.985 1132.36 690.045C1130.82 691.091 1129.63 692.455 1128.79 694.136C1127.96 695.818 1127.54 697.621 1127.54 699.545V702.636C1127.54 705.273 1128 707.508 1128.91 709.341C1129.83 711.159 1131.11 712.545 1132.75 713.5C1134.38 714.439 1136.29 714.909 1138.45 714.909C1139.86 714.909 1141.13 714.712 1142.27 714.318C1143.42 713.909 1144.41 713.303 1145.25 712.5C1146.08 711.682 1146.72 710.667 1147.18 709.455L1152.36 710.909C1151.82 712.667 1150.9 714.212 1149.61 715.545C1148.32 716.864 1146.73 717.894 1144.84 718.636C1142.94 719.364 1140.82 719.727 1138.45 719.727ZM1174.25 719.727C1171.34 719.727 1168.77 718.992 1166.54 717.523C1164.32 716.038 1162.57 713.947 1161.32 711.25C1160.06 708.538 1159.43 705.333 1159.43 701.636C1159.43 697.97 1160.06 694.788 1161.32 692.091C1162.57 689.394 1164.32 687.311 1166.57 685.841C1168.81 684.371 1171.4 683.636 1174.34 683.636C1176.61 683.636 1178.41 684.015 1179.72 684.773C1181.06 685.515 1182.07 686.364 1182.77 687.318C1183.48 688.258 1184.04 689.03 1184.43 689.636H1184.88V672.455H1190.25V719H1185.07V713.636H1184.43C1184.04 714.273 1183.47 715.076 1182.75 716.045C1182.02 717 1180.98 717.856 1179.63 718.614C1178.29 719.356 1176.49 719.727 1174.25 719.727ZM1174.97 714.909C1177.13 714.909 1178.94 714.348 1180.43 713.227C1181.91 712.091 1183.04 710.523 1183.82 708.523C1184.59 706.508 1184.97 704.182 1184.97 701.545C1184.97 698.939 1184.6 696.659 1183.84 694.705C1183.08 692.735 1181.96 691.205 1180.47 690.114C1178.99 689.008 1177.16 688.455 1174.97 688.455C1172.7 688.455 1170.81 689.038 1169.29 690.205C1167.79 691.356 1166.66 692.924 1165.91 694.909C1165.16 696.879 1164.79 699.091 1164.79 701.545C1164.79 704.03 1165.17 706.288 1165.93 708.318C1166.7 710.333 1167.84 711.939 1169.34 713.136C1170.85 714.318 1172.73 714.909 1174.97 714.909ZM1243.54 691.909L1238.72 693.273C1238.42 692.47 1237.97 691.689 1237.38 690.932C1236.81 690.159 1236.02 689.523 1235.02 689.023C1234.02 688.523 1232.74 688.273 1231.18 688.273C1229.04 688.273 1227.26 688.765 1225.84 689.75C1224.43 690.72 1223.72 691.955 1223.72 693.455C1223.72 694.788 1224.21 695.841 1225.18 696.614C1226.15 697.386 1227.66 698.03 1229.72 698.545L1234.91 699.818C1238.03 700.576 1240.35 701.735 1241.88 703.295C1243.41 704.841 1244.18 706.833 1244.18 709.273C1244.18 711.273 1243.6 713.061 1242.45 714.636C1241.32 716.212 1239.72 717.455 1237.68 718.364C1235.63 719.273 1233.25 719.727 1230.54 719.727C1226.98 719.727 1224.04 718.955 1221.7 717.409C1219.37 715.864 1217.89 713.606 1217.27 710.636L1222.36 709.364C1222.85 711.242 1223.76 712.652 1225.11 713.591C1226.47 714.53 1228.25 715 1230.45 715C1232.95 715 1234.94 714.47 1236.41 713.409C1237.89 712.333 1238.63 711.045 1238.63 709.545C1238.63 708.333 1238.21 707.318 1237.36 706.5C1236.51 705.667 1235.21 705.045 1233.45 704.636L1227.63 703.273C1224.44 702.515 1222.09 701.341 1220.59 699.75C1219.1 698.144 1218.36 696.136 1218.36 693.727C1218.36 691.758 1218.91 690.015 1220.02 688.5C1221.14 686.985 1222.66 685.795 1224.59 684.932C1226.53 684.068 1228.72 683.636 1231.18 683.636C1234.63 683.636 1237.35 684.394 1239.32 685.909C1241.3 687.424 1242.71 689.424 1243.54 691.909ZM1252.25 719V684.091H1257.62V719H1252.25ZM1254.98 678.273C1253.93 678.273 1253.03 677.917 1252.28 677.205C1251.53 676.492 1251.16 675.636 1251.16 674.636C1251.16 673.636 1251.53 672.78 1252.28 672.068C1253.03 671.356 1253.93 671 1254.98 671C1256.03 671 1256.92 671.356 1257.66 672.068C1258.42 672.78 1258.8 673.636 1258.8 674.636C1258.8 675.636 1258.42 676.492 1257.66 677.205C1256.92 677.917 1256.03 678.273 1254.98 678.273ZM1272.8 698V719H1267.44V684.091H1272.62V689.545H1273.08C1273.89 687.773 1275.14 686.348 1276.8 685.273C1278.47 684.182 1280.62 683.636 1283.26 683.636C1285.62 683.636 1287.69 684.121 1289.46 685.091C1291.24 686.045 1292.61 687.5 1293.6 689.455C1294.58 691.394 1295.08 693.848 1295.08 696.818V719H1289.71V697.182C1289.71 694.439 1289 692.303 1287.58 690.773C1286.15 689.227 1284.2 688.455 1281.71 688.455C1280 688.455 1278.47 688.826 1277.12 689.568C1275.79 690.311 1274.74 691.394 1273.96 692.818C1273.19 694.242 1272.8 695.97 1272.8 698ZM1319.06 719.727C1315.79 719.727 1312.97 718.955 1310.61 717.409C1308.24 715.864 1306.42 713.735 1305.15 711.023C1303.88 708.311 1303.24 705.212 1303.24 701.727C1303.24 698.182 1303.89 695.053 1305.2 692.341C1306.51 689.614 1308.35 687.485 1310.7 685.955C1313.06 684.409 1315.82 683.636 1318.97 683.636C1321.42 683.636 1323.64 684.091 1325.61 685C1327.57 685.909 1329.19 687.182 1330.45 688.818C1331.7 690.455 1332.48 692.364 1332.79 694.545H1327.42C1327.01 692.955 1326.11 691.545 1324.7 690.318C1323.3 689.076 1321.42 688.455 1319.06 688.455C1316.97 688.455 1315.14 689 1313.56 690.091C1312 691.167 1310.78 692.689 1309.9 694.659C1309.04 696.614 1308.61 698.909 1308.61 701.545C1308.61 704.242 1309.03 706.591 1309.88 708.591C1310.74 710.591 1311.95 712.144 1313.51 713.25C1315.09 714.356 1316.94 714.909 1319.06 714.909C1320.45 714.909 1321.72 714.667 1322.86 714.182C1323.99 713.697 1324.95 713 1325.74 712.091C1326.53 711.182 1327.09 710.091 1327.42 708.818H1332.79C1332.48 710.879 1331.73 712.735 1330.54 714.386C1329.36 716.023 1327.79 717.326 1325.83 718.295C1323.89 719.25 1321.64 719.727 1319.06 719.727ZM1355.26 719.727C1351.9 719.727 1349 718.985 1346.56 717.5C1344.14 716 1342.26 713.909 1340.95 711.227C1339.64 708.53 1338.99 705.394 1338.99 701.818C1338.99 698.242 1339.64 695.091 1340.95 692.364C1342.26 689.621 1344.1 687.485 1346.45 685.955C1348.81 684.409 1351.57 683.636 1354.72 683.636C1356.54 683.636 1358.33 683.939 1360.11 684.545C1361.88 685.152 1363.49 686.136 1364.95 687.5C1366.4 688.848 1367.56 690.636 1368.42 692.864C1369.29 695.091 1369.72 697.833 1369.72 701.091V703.364H1342.81V698.727H1364.26C1364.26 696.758 1363.87 695 1363.08 693.455C1362.31 691.909 1361.2 690.689 1359.76 689.795C1358.34 688.902 1356.66 688.455 1354.72 688.455C1352.58 688.455 1350.73 688.985 1349.17 690.045C1347.63 691.091 1346.44 692.455 1345.61 694.136C1344.77 695.818 1344.36 697.621 1344.36 699.545V702.636C1344.36 705.273 1344.81 707.508 1345.72 709.341C1346.64 711.159 1347.92 712.545 1349.56 713.5C1351.2 714.439 1353.1 714.909 1355.26 714.909C1356.67 714.909 1357.95 714.712 1359.08 714.318C1360.23 713.909 1361.23 713.303 1362.06 712.5C1362.89 711.682 1363.54 710.667 1363.99 709.455L1369.17 710.909C1368.63 712.667 1367.71 714.212 1366.42 715.545C1365.14 716.864 1363.54 717.894 1361.65 718.636C1359.76 719.364 1357.63 719.727 1355.26 719.727ZM1401.6 719.659C1399.37 719.659 1397.39 719.273 1395.64 718.5C1393.9 717.712 1392.52 716.553 1391.51 715.023C1390.51 713.477 1390.01 711.553 1390.01 709.25C1390.01 707.311 1390.36 705.682 1391.08 704.364C1391.79 703.045 1392.76 701.985 1393.99 701.182C1395.21 700.379 1396.61 699.773 1398.17 699.364C1399.74 698.955 1401.39 698.667 1403.12 698.5C1405.15 698.288 1406.79 698.091 1408.03 697.909C1409.27 697.712 1410.18 697.424 1410.74 697.045C1411.3 696.667 1411.58 696.106 1411.58 695.364V695.227C1411.58 693.788 1411.12 692.674 1410.21 691.886C1409.32 691.098 1408.05 690.705 1406.39 690.705C1404.65 690.705 1403.27 691.091 1402.24 691.864C1401.21 692.621 1400.52 693.576 1400.19 694.727L1391.24 694C1391.69 691.879 1392.58 690.045 1393.92 688.5C1395.25 686.939 1396.97 685.742 1399.08 684.909C1401.2 684.061 1403.65 683.636 1406.44 683.636C1408.38 683.636 1410.24 683.864 1412.01 684.318C1413.8 684.773 1415.38 685.477 1416.76 686.432C1418.15 687.386 1419.25 688.614 1420.05 690.114C1420.86 691.598 1421.26 693.379 1421.26 695.455V719H1412.08V714.159H1411.8C1411.24 715.25 1410.49 716.212 1409.55 717.045C1408.61 717.864 1407.49 718.508 1406.17 718.977C1404.85 719.432 1403.33 719.659 1401.6 719.659ZM1404.37 712.977C1405.8 712.977 1407.05 712.697 1408.14 712.136C1409.24 711.561 1410.09 710.788 1410.71 709.818C1411.33 708.848 1411.64 707.75 1411.64 706.523V702.818C1411.34 703.015 1410.93 703.197 1410.39 703.364C1409.88 703.515 1409.3 703.659 1408.64 703.795C1407.99 703.917 1407.34 704.03 1406.69 704.136C1406.04 704.227 1405.45 704.311 1404.92 704.386C1403.78 704.553 1402.79 704.818 1401.94 705.182C1401.09 705.545 1400.43 706.038 1399.96 706.659C1399.49 707.265 1399.26 708.023 1399.26 708.932C1399.26 710.25 1399.74 711.258 1400.69 711.955C1401.66 712.636 1402.89 712.977 1404.37 712.977ZM1444.5 732.818C1441.36 732.818 1438.67 732.386 1436.43 731.523C1434.2 730.674 1432.43 729.515 1431.11 728.045C1429.79 726.576 1428.94 724.924 1428.54 723.091L1437.5 721.886C1437.77 722.583 1438.2 723.235 1438.79 723.841C1439.38 724.447 1440.16 724.932 1441.13 725.295C1442.12 725.674 1443.32 725.864 1444.72 725.864C1446.83 725.864 1448.57 725.348 1449.93 724.318C1451.31 723.303 1452 721.598 1452 719.205V712.818H1451.59C1451.16 713.788 1450.53 714.705 1449.68 715.568C1448.83 716.432 1447.74 717.136 1446.41 717.682C1445.07 718.227 1443.48 718.5 1441.63 718.5C1439.01 718.5 1436.63 717.894 1434.47 716.682C1432.34 715.455 1430.63 713.583 1429.36 711.068C1428.1 708.538 1427.47 705.341 1427.47 701.477C1427.47 697.523 1428.12 694.22 1429.41 691.568C1430.69 688.917 1432.41 686.932 1434.54 685.614C1436.69 684.295 1439.05 683.636 1441.61 683.636C1443.57 683.636 1445.2 683.97 1446.52 684.636C1447.84 685.288 1448.9 686.106 1449.7 687.091C1450.52 688.061 1451.15 689.015 1451.59 689.955H1451.95V684.091H1461.57V719.341C1461.57 722.311 1460.84 724.795 1459.38 726.795C1457.93 728.795 1455.91 730.295 1453.34 731.295C1450.78 732.311 1447.83 732.818 1444.5 732.818ZM1444.7 711.227C1446.26 711.227 1447.58 710.841 1448.66 710.068C1449.75 709.28 1450.58 708.159 1451.16 706.705C1451.75 705.235 1452.04 703.477 1452.04 701.432C1452.04 699.386 1451.75 697.614 1451.18 696.114C1450.6 694.598 1449.77 693.424 1448.68 692.591C1447.59 691.758 1446.26 691.341 1444.7 691.341C1443.11 691.341 1441.77 691.773 1440.68 692.636C1439.59 693.485 1438.76 694.667 1438.2 696.182C1437.64 697.697 1437.36 699.447 1437.36 701.432C1437.36 703.447 1437.64 705.189 1438.2 706.659C1438.78 708.114 1439.6 709.242 1440.68 710.045C1441.77 710.833 1443.11 711.227 1444.7 711.227ZM1485.18 719.682C1481.59 719.682 1478.5 718.955 1475.91 717.5C1473.33 716.03 1471.35 713.955 1469.95 711.273C1468.56 708.576 1467.86 705.386 1467.86 701.705C1467.86 698.114 1468.56 694.962 1469.95 692.25C1471.35 689.538 1473.31 687.424 1475.84 685.909C1478.38 684.394 1481.37 683.636 1484.79 683.636C1487.1 683.636 1489.24 684.008 1491.22 684.75C1493.22 685.477 1494.97 686.576 1496.45 688.045C1497.95 689.515 1499.12 691.364 1499.95 693.591C1500.79 695.803 1501.2 698.394 1501.2 701.364V704.023H1471.72V698.023H1492.09C1492.09 696.629 1491.79 695.394 1491.18 694.318C1490.57 693.242 1489.73 692.402 1488.66 691.795C1487.6 691.174 1486.36 690.864 1484.95 690.864C1483.48 690.864 1482.18 691.205 1481.04 691.886C1479.92 692.553 1479.04 693.455 1478.41 694.591C1477.77 695.712 1477.44 696.962 1477.43 698.341V704.045C1477.43 705.773 1477.75 707.265 1478.38 708.523C1479.04 709.78 1479.95 710.75 1481.13 711.432C1482.32 712.114 1483.72 712.455 1485.34 712.455C1486.41 712.455 1487.4 712.303 1488.29 712C1489.19 711.697 1489.95 711.242 1490.59 710.636C1491.22 710.03 1491.71 709.288 1492.04 708.409L1501 709C1500.54 711.152 1499.61 713.03 1498.2 714.636C1496.81 716.227 1495 717.47 1492.79 718.364C1490.6 719.242 1488.06 719.682 1485.18 719.682ZM1542.49 672.455V719H1532.65V681.795H1532.38L1521.72 688.477V679.75L1533.24 672.455H1542.49ZM1552.85 710.818V703.068L1572.28 672.455H1578.96V683.182H1575.01L1562.76 702.568V702.932H1590.37V710.818H1552.85ZM1575.19 719V708.455L1575.37 705.023V672.455H1584.6V719H1575.19ZM1601.97 719.364C1600.85 719.364 1599.89 718.962 1599.09 718.159C1598.29 717.356 1597.88 716.394 1597.88 715.273C1597.88 714.152 1598.29 713.189 1599.09 712.386C1599.89 711.583 1600.85 711.182 1601.97 711.182C1603.1 711.182 1604.06 711.583 1604.86 712.386C1605.66 713.189 1606.07 714.152 1606.07 715.273C1606.07 716.015 1605.88 716.697 1605.5 717.318C1605.13 717.939 1604.64 718.439 1604.02 718.818C1603.41 719.182 1602.73 719.364 1601.97 719.364Z" fill="white"/>
<path d="M600 100H800L1000 300M600 100V300M600 100L800 300M1100 700L1200 500L1000 300M1100 700V900M1100 700L950 500M1100 900H900L700 700M1100 900L900 700M600 300L500 500L700 700M600 300L750 500M700 700H900M700 700L750 500M800 300H1000M800 300L750 500M1000 300L950 500M900 700L950 500M750 500H950" stroke="white"/>
<path d="M1300 800H1500L1700 1000M1300 800V1000M1300 800L1500 1000M1800 1400L1900 1200L1700 1000M1800 1400V1600M1800 1400L1650 1200M1800 1600H1600L1400 1400M1800 1600L1600 1400M1300 1000L1200 1200L1400 1400M1300 1000L1450 1200M1400 1400H1600M1400 1400L1450 1200M1500 1000H1700M1500 1000L1450 1200M1700 1000L1650 1200M1600 1400L1650 1200M1450 1200H1650" stroke="white"/>
<path d="M1320 -400H1520L1720 -200M1320 -400V-200M1320 -400L1520 -200M1820 200L1920 0L1720 -200M1820 200V400M1820 200L1670 0M1820 400H1620L1420 200M1820 400L1620 200M1320 -200L1220 0L1420 200M1320 -200L1470 0M1420 200H1620M1420 200L1470 0M1520 -200H1720M1520 -200L1470 0M1720 -200L1670 0M1620 200L1670 0M1470 0H1670" stroke="white"/>
<path d="M-201 200H-1L199 400M-201 200V400M-201 200L-1 400M299 800L399 600L199 400M299 800V1000M299 800L149 600M299 1000H99L-101 800M299 1000L99 800M-201 400L-301 600L-101 800M-201 400L-51 600M-101 800H99M-101 800L-51 600M-1 400H199M-1 400L-51 600M199 400L149 600M99 800L149 600M-51 600H149" stroke="white"/>
</g>
<defs>
<linearGradient id="paint0_linear_1_49" x1="-24.5" y1="418" x2="858.326" y2="1543.08" gradientUnits="userSpaceOnUse">
<stop stop-color="#072941"/>
<stop offset="0.5" stop-color="#095287"/>
<stop offset="1" stop-color="#268FDB"/>
</linearGradient>
<clipPath id="clip0_1_49">
<rect width="1920" height="1080" fill="white"/>
</clipPath>
</defs>
</svg>
